<svg width="20" height="20" viewBox="0 0 20 20" fill="none" xmlns="http://www.w3.org/2000/svg">
<g id="edit-2" clip-path="url(#clip0_431_24309)">
<path id="Vector" d="M14.1666 2.49895C14.3855 2.28008 14.6453 2.10646 14.9313 1.98801C15.2173 1.86956 15.5238 1.80859 15.8333 1.80859C16.1428 1.80859 16.4493 1.86956 16.7353 1.98801C17.0213 2.10646 17.2811 2.28008 17.5 2.49895C17.7188 2.71782 17.8924 2.97766 18.0109 3.26362C18.1294 3.54959 18.1903 3.85609 18.1903 4.16562C18.1903 4.47514 18.1294 4.78164 18.0109 5.06761C17.8924 5.35358 17.7188 5.61341 17.5 5.83228L6.24996 17.0823L1.66663 18.3323L2.91663 13.7489L14.1666 2.49895Z" stroke="#B0B0B1" stroke-width="1.67" stroke-linecap="round" stroke-linejoin="round"/>
</g>
<defs>
<clipPath id="clip0_431_24309">
<rect width="20" height="20" fill="white"/>
</clipPath>
</defs>
</svg>
