<svg width="16" height="16" viewBox="0 0 16 16" fill="none" xmlns="http://www.w3.org/2000/svg">
<g clip-path="url(#clip0_421_21666)">
<path d="M11.3333 2.0015C11.5084 1.82641 11.7163 1.68751 11.9451 1.59275C12.1738 1.49799 12.419 1.44922 12.6666 1.44922C12.9143 1.44922 13.1595 1.49799 13.3882 1.59275C13.617 1.68751 13.8249 1.82641 14 2.0015C14.1751 2.1766 14.314 2.38447 14.4087 2.61324C14.5035 2.84202 14.5523 3.08721 14.5523 3.33484C14.5523 3.58246 14.5035 3.82766 14.4087 4.05643C14.314 4.28521 14.1751 4.49307 14 4.66817L4.99998 13.6682L1.33331 14.6682L2.33331 11.0015L11.3333 2.0015Z" stroke="#0E0E0F" stroke-width="2" stroke-linecap="round" stroke-linejoin="round"/>
</g>
<defs>
<clipPath id="clip0_421_21666">
<rect width="16" height="16" fill="white"/>
</clipPath>
</defs>
</svg>
