<?xml version="1.0" encoding="utf-8"?>
<!-- Generator: Adobe Illustrator 27.1.0, SVG Export Plug-In . SVG Version: 6.00 Build 0)  -->
<svg version="1.1" id="Layer_1" xmlns="http://www.w3.org/2000/svg" xmlns:xlink="http://www.w3.org/1999/xlink" x="0px" y="0px"
	 viewBox="0 0 16 16" style="enable-background:new 0 0 16 16;" xml:space="preserve">
<style type="text/css">
	.st0{fill:#CDCDCE;}
</style>
<g>
	<path class="st0" d="M3.4,10.9C2.2,9.8,1.4,8.5,1.1,8c0.6-1,3-4.9,6.9-4.9c1,0,1.8,0.2,2.6,0.6h0l0.8-0.8c-1-0.5-2.1-0.9-3.4-0.9
		c-5,0-7.8,5.5-7.9,5.7C0,7.9,0,8.1,0.1,8.3c0.1,0.1,1,1.9,2.6,3.4L3.4,10.9z"/>
	<path class="st0" d="M15.9,7.8c-0.1-0.1-1-1.9-2.6-3.4l-0.8,0.8c1.2,1.1,2,2.4,2.3,2.9c-0.6,1-3.1,4.9-6.9,4.9
		c-1,0-1.8-0.2-2.6-0.6l-0.8,0.8C5.6,13.6,6.7,14,8,14c5,0,7.8-5.5,7.9-5.7C16,8.1,16,7.9,15.9,7.8z"/>
	<path class="st0" d="M8,10.1c-0.1,0-0.2,0-0.3,0l-0.8,0.9c0.4,0.1,0.8,0.2,1.2,0.2c1.7,0,3.1-1.4,3.1-3.1c0-0.4-0.1-0.8-0.2-1.2
		L10,7.7c0,0.1,0,0.2,0,0.3C10.1,9.2,9.1,10.1,8,10.1z"/>
	<path class="st0" d="M8,6c0.1,0,0.2,0,0.3,0l0.9-0.9C8.8,5,8.4,4.9,8,4.9C6.3,4.9,4.9,6.3,4.9,8c0,0.4,0.1,0.8,0.2,1.2L6,8.4
		c0-0.1,0-0.2,0-0.3C5.9,6.9,6.9,6,8,6z"/>
	<path class="st0" d="M15.1,0.9c-0.2-0.2-0.5-0.2-0.7,0L0.9,14.4c-0.2,0.2-0.2,0.5,0,0.7c0.1,0.1,0.2,0.2,0.4,0.2s0.3-0.1,0.4-0.2
		L15.1,1.6C15.4,1.4,15.4,1.1,15.1,0.9z"/>
</g>
</svg>
