<svg width="35" height="35" viewBox="0 0 35 35" fill="none" xmlns="http://www.w3.org/2000/svg">
<path d="M1.75 11.2793C1.03516 11.2793 0.677734 10.9102 0.677734 10.1719V5.6543C0.677734 3.95508 1.11133 2.67773 1.97852 1.82227C2.8457 0.966797 4.13477 0.539062 5.8457 0.539062H10.3633C11.1016 0.539062 11.4707 0.896484 11.4707 1.61133C11.4707 2.33789 11.1016 2.70117 10.3633 2.70117H5.89844C4.90234 2.70117 4.14062 2.95898 3.61328 3.47461C3.09766 3.99023 2.83984 4.75781 2.83984 5.77734V10.1719C2.83984 10.9102 2.47656 11.2793 1.75 11.2793ZM33.2148 11.2793C32.5 11.2793 32.1426 10.9102 32.1426 10.1719V5.77734C32.1426 4.75781 31.873 3.99023 31.334 3.47461C30.7949 2.95898 30.0391 2.70117 29.0664 2.70117H24.6191C23.8809 2.70117 23.5117 2.33789 23.5117 1.61133C23.5117 0.896484 23.8809 0.539062 24.6191 0.539062H29.1191C30.8418 0.539062 32.1367 0.972656 33.0039 1.83984C33.8711 2.69531 34.3047 3.9668 34.3047 5.6543V10.1719C34.3047 10.9102 33.9414 11.2793 33.2148 11.2793ZM5.8457 34.1484C4.13477 34.1484 2.8457 33.7148 1.97852 32.8477C1.11133 31.9922 0.677734 30.7148 0.677734 29.0156V24.5156C0.677734 23.7773 1.03516 23.4082 1.75 23.4082C2.47656 23.4082 2.83984 23.7773 2.83984 24.5156V28.9102C2.83984 29.9297 3.09766 30.6973 3.61328 31.2129C4.14062 31.7285 4.90234 31.9863 5.89844 31.9863H10.3633C11.1016 31.9863 11.4707 32.3496 11.4707 33.0762C11.4707 33.791 11.1016 34.1484 10.3633 34.1484H5.8457ZM24.6191 34.1484C23.8809 34.1484 23.5117 33.791 23.5117 33.0762C23.5117 32.3496 23.8809 31.9863 24.6191 31.9863H29.0664C30.0391 31.9863 30.7949 31.7285 31.334 31.2129C31.873 30.6973 32.1426 29.9297 32.1426 28.9102V24.5156C32.1426 23.7773 32.5 23.4082 33.2148 23.4082C33.9414 23.4082 34.3047 23.7773 34.3047 24.5156V29.0156C34.3047 30.7148 33.8711 31.9922 33.0039 32.8477C32.1367 33.7148 30.8418 34.1484 29.1191 34.1484H24.6191ZM10.9609 15.9375C10.6211 15.9375 10.3398 15.832 10.1172 15.6211C9.90625 15.4102 9.80078 15.123 9.80078 14.7598V12.3867C9.80078 12.0352 9.90625 11.7539 10.1172 11.543C10.3398 11.3203 10.6211 11.209 10.9609 11.209C11.3008 11.209 11.582 11.3203 11.8047 11.543C12.0273 11.7539 12.1387 12.0352 12.1387 12.3867V14.7598C12.1387 15.123 12.0273 15.4102 11.8047 15.6211C11.582 15.832 11.3008 15.9375 10.9609 15.9375ZM16.0586 20.0508C15.6953 20.0508 15.4141 19.9688 15.2148 19.8047C15.0156 19.6289 14.916 19.3945 14.916 19.1016C14.916 18.8438 14.998 18.6328 15.1621 18.4688C15.3379 18.293 15.5547 18.2051 15.8125 18.2051H16.4102C16.5391 18.2051 16.6504 18.1641 16.7441 18.082C16.8496 18 16.9023 17.877 16.9023 17.7129V12.0879C16.9023 11.8066 16.9844 11.5898 17.1484 11.4375C17.3125 11.2734 17.5293 11.1914 17.7988 11.1914C18.0801 11.1914 18.3027 11.2734 18.4668 11.4375C18.6309 11.5898 18.7129 11.8066 18.7129 12.0879V17.5547C18.7129 18.375 18.502 18.9961 18.0801 19.418C17.6582 19.8398 17.0371 20.0508 16.2168 20.0508C16.1934 20.0508 16.1641 20.0508 16.1289 20.0508C16.1055 20.0508 16.082 20.0508 16.0586 20.0508ZM23.916 15.9375C23.5645 15.9375 23.2832 15.832 23.0723 15.6211C22.8613 15.4102 22.7559 15.123 22.7559 14.7598V12.3867C22.7559 12.0352 22.8613 11.7539 23.0723 11.543C23.2832 11.3203 23.5645 11.209 23.916 11.209C24.2559 11.209 24.5312 11.3203 24.7422 11.543C24.9648 11.7539 25.0762 12.0352 25.0762 12.3867V14.7598C25.0762 15.123 24.9648 15.4102 24.7422 15.6211C24.5312 15.832 24.2559 15.9375 23.916 15.9375ZM17.3594 25.7285C16.3398 25.7285 15.332 25.5293 14.3359 25.1309C13.3398 24.7207 12.4961 24.1289 11.8047 23.3555C11.7109 23.2617 11.6348 23.1621 11.5762 23.0566C11.5293 22.9395 11.5059 22.8164 11.5059 22.6875C11.5059 22.418 11.5938 22.2012 11.7695 22.0371C11.9453 21.873 12.1621 21.791 12.4199 21.791C12.584 21.791 12.7188 21.8262 12.8242 21.8965C12.9414 21.9668 13.0645 22.0605 13.1934 22.1777C13.709 22.7051 14.3418 23.127 15.0918 23.4434C15.8418 23.7598 16.5977 23.918 17.3594 23.918C18.168 23.918 18.9414 23.7598 19.6797 23.4434C20.4297 23.1152 21.0566 22.6934 21.5605 22.1777C21.8066 21.9199 22.0586 21.791 22.3164 21.791C22.5625 21.791 22.7734 21.873 22.9492 22.0371C23.125 22.2012 23.2129 22.418 23.2129 22.6875C23.2129 22.8398 23.1895 22.9746 23.1426 23.0918C23.0957 23.1973 23.0312 23.291 22.9492 23.373C22.1992 24.1113 21.332 24.6914 20.3477 25.1133C19.375 25.5234 18.3789 25.7285 17.3594 25.7285Z" fill="#E10600"/>
</svg>
