<svg width="47" height="52" viewBox="0 0 47 52" fill="none" xmlns="http://www.w3.org/2000/svg">
<rect x="13.215" y="18.834" width="30.8559" height="19.9656" rx="2.42007" fill="#9EA5D1"/>
<mask id="mask0_2304_5274" style="mask-type:alpha" maskUnits="userSpaceOnUse" x="13" y="18" width="32" height="21">
<rect x="13.215" y="18.834" width="30.8559" height="19.9656" rx="2.42007" fill="#4E5BA6"/>
</mask>
<g mask="url(#mask0_2304_5274)">
<circle cx="42.2562" cy="20.0419" r="14.5204" fill="#ECFDF3" fill-opacity="0.1"/>
<circle cx="43.4659" cy="12.7822" r="14.5204" fill="#ECFDF3" fill-opacity="0.1"/>
<rect opacity="0.5" x="23.2832" y="23" width="11.2683" height="11.8517" rx="5.63416" fill="white"/>
<path d="M28.8871 27.448C28.6833 27.4428 28.5288 27.275 28.4251 27.0995C28.3713 27.0086 28.2975 26.9298 28.2036 26.8631C28.0078 26.7222 27.7587 26.6479 27.4563 26.6401C27.2398 26.6345 27.0516 26.6641 26.8918 26.7287C26.732 26.7917 26.6067 26.8813 26.516 26.9976C26.4271 27.1122 26.3807 27.2443 26.3769 27.3938C26.3737 27.5192 26.4001 27.6282 26.4562 27.7208C26.514 27.8134 26.5902 27.8919 26.6848 27.9562C26.7812 28.0189 26.8847 28.0722 26.9953 28.1164C27.106 28.1587 27.2126 28.1942 27.315 28.2226L27.827 28.3699C27.9943 28.4154 28.1656 28.4757 28.3407 28.5507C28.5159 28.6257 28.6776 28.7227 28.8259 28.8417C28.9741 28.9607 29.0924 29.1065 29.1808 29.279C29.271 29.4515 29.313 29.6563 29.3069 29.8935C29.2992 30.1924 29.215 30.4559 29.0544 30.6839C28.8955 30.9119 28.6683 31.0892 28.3728 31.2157C28.079 31.3423 27.7258 31.4002 27.3135 31.3896C26.9183 31.3795 26.578 31.3079 26.2925 31.1751C26.0071 31.0422 25.7857 30.8586 25.6284 30.6241C25.5449 30.4988 25.4824 30.3619 25.4407 30.2134C25.378 29.9903 25.5737 29.7974 25.8054 29.8034C26.0159 29.8088 26.1733 29.9843 26.2705 30.1711C26.2933 30.2149 26.3202 30.2561 26.3513 30.2946C26.458 30.4228 26.5957 30.5201 26.7642 30.5863C26.9344 30.6509 27.1218 30.6858 27.3263 30.691C27.5514 30.6968 27.7525 30.6667 27.9295 30.6008C28.1084 30.5332 28.2501 30.4371 28.3547 30.3126C28.4594 30.1863 28.514 30.0373 28.5184 29.8654C28.5224 29.7091 28.4811 29.5799 28.3943 29.478C28.3092 29.3761 28.1919 29.2905 28.0424 29.2213C27.8946 29.1522 27.7268 29.0903 27.5391 29.0356L26.9197 28.8494C26.5 28.7234 26.1693 28.5456 25.9276 28.3158C25.6877 28.0862 25.5724 27.7875 25.5819 27.4198C25.5897 27.1156 25.679 26.8523 25.8498 26.6297C26.0206 26.4072 26.2485 26.2368 26.5335 26.1186C26.8186 25.9987 27.1381 25.9433 27.492 25.9524C27.8494 25.9616 28.1631 26.0324 28.4331 26.1649C28.7048 26.2974 28.9168 26.4756 29.0692 26.6996C29.145 26.8101 29.2019 26.9281 29.2399 27.0538C29.3051 27.2691 29.112 27.4538 28.8871 27.448Z" fill="white"/>
<path d="M31.8782 25.8899C32.0968 25.8955 32.2505 26.1071 32.1882 26.3167L30.5206 31.9327C30.4778 32.0768 30.3436 32.1742 30.1934 32.1704C29.9748 32.1647 29.8211 31.9531 29.8833 31.7435L31.551 26.1275C31.5938 25.9834 31.7279 25.886 31.8782 25.8899Z" fill="white"/>
<path fill-rule="evenodd" clip-rule="evenodd" d="M20.6507 20.3003C20.6502 19.9662 21.0821 19.6948 21.6153 19.6941L35.0619 19.6774C35.5951 19.6767 36.0277 19.947 36.0281 20.2812C36.0285 20.6153 35.5966 20.8867 35.0634 20.8874L21.6168 20.9041C21.0836 20.9048 20.6511 20.6345 20.6507 20.3003Z" fill="white" fill-opacity="0.3"/>
<path fill-rule="evenodd" clip-rule="evenodd" d="M21.5337 36.8023C21.5333 36.4681 21.9652 36.1967 22.4984 36.1961L35.945 36.1793C36.4782 36.1786 36.9107 36.449 36.9112 36.7831C36.9116 37.1173 36.4797 37.3887 35.9465 37.3893L22.4999 37.4061C21.9667 37.4068 21.5341 37.1364 21.5337 36.8023Z" fill="white" fill-opacity="0.3"/>
</g>
<path d="M33.1364 11.804L6.6903 18.2068C5.38175 18.5236 5.22098 20.3198 6.45247 20.864L17.1578 25.5942C17.558 25.771 17.8533 26.1238 17.9569 26.5488L20.4102 36.607C20.7202 37.878 22.4445 38.0765 23.0352 36.9092L34.7245 13.8089C35.267 12.7367 34.3042 11.5213 33.1364 11.804Z" fill="#4E5BA6"/>
<circle cx="28.3559" cy="28.3386" r="6.69014" fill="#039855"/>
<path fill-rule="evenodd" clip-rule="evenodd" d="M31.4643 26.7818C31.6427 26.5691 31.6206 26.2381 31.4149 26.0424C31.2091 25.8468 30.8976 25.8606 30.7192 26.0733L27.8882 29.4472L26.7 28.0312C26.6125 27.9269 26.3747 28.0008 26.169 28.1964C25.9632 28.392 25.8674 28.6352 25.955 28.7396L27.4315 30.4992C27.4593 30.5561 27.4972 30.6089 27.545 30.6544C27.7507 30.85 28.0622 30.8362 28.2407 30.6235L31.4643 26.7818Z" fill="white"/>
</svg>
