<svg xmlns="http://www.w3.org/2000/svg" width="597" height="239">
<path d="M0 0 C2.31138284 2.59006021 4.18871095 5.24584823 6.078125 8.15625 C7.4949296 9.94368438 8.93300229 11.71444302 10.390625 13.46875 C11.12925781 14.38269531 11.86789062 15.29664062 12.62890625 16.23828125 C15.83493418 20.05790304 19.22802284 23.6808941 22.63598633 27.31958008 C26.53780889 31.50918609 30.15122678 35.87779714 33.734375 40.34375 C36.41020671 43.55474805 39.22170776 46.60654137 42.078125 49.65625 C46.51645174 54.39491464 50.6695475 59.27744326 54.734375 64.34375 C57.41021207 67.55475448 60.22177933 70.60646628 63.078125 73.65625 C67.60672475 78.49347179 71.8823205 83.46569895 76.03125 88.63671875 C78.55192375 91.73945648 81.18944894 94.72438771 83.86328125 97.6953125 C85.078125 99.15625 85.078125 99.15625 85.078125 100.15625 C84.0986792 100.13530273 83.1192334 100.11435547 82.11010742 100.09277344 C17.52373001 98.8383941 -39.20270129 119.68628802 -92.921875 155.15625 C-93.61474609 155.61354492 -94.30761719 156.07083984 -95.02148438 156.54199219 C-108.8724982 165.74728319 -122.13833517 175.78878896 -134.8203125 186.546875 C-136.921875 188.15625 -136.921875 188.15625 -139.921875 189.15625 C-140.29632232 179.60029906 -140.67023247 170.04432727 -141.04351711 160.48833084 C-141.21699604 156.04771212 -141.3906378 151.60709991 -141.56469727 147.16650391 C-141.76630666 142.02248114 -141.96728086 136.87843379 -142.16796875 131.734375 C-142.20087006 130.89243465 -142.23377136 130.05049431 -142.26766968 129.18304062 C-142.59923349 120.68776517 -142.92581959 112.19243773 -143.22070312 103.69580078 C-143.26526138 102.41461365 -143.30981964 101.13342651 -143.35572815 99.81341553 C-143.43573542 97.48278168 -143.51426703 95.15209644 -143.59092712 92.8213501 C-143.74475456 88.30798715 -143.92402809 83.80755423 -144.26318359 79.30395508 C-144.64398775 74.23978419 -144.89177373 70.71539984 -142.16015625 66.32421875 C-139.88004203 63.74215392 -137.47760428 61.4625401 -134.921875 59.15625 C-133.69268255 57.77875007 -132.48249246 56.38392892 -131.296875 54.96875 C-109.7611544 30.38459407 -35.17645115 -22.196905 0 0 Z " transform="translate(439.921875,2.84375)"/>
<path d="M0 0 C0.80332764 0.37406982 1.60665527 0.74813965 2.43432617 1.13354492 C4.02886989 1.90985937 5.60198133 2.73194385 7.1489563 3.59918213 C10.10419294 5.22440406 10.10419294 5.22440406 13.58695984 6.43849182 C17.84350654 8.24592538 21.37804515 10.26987486 24.0625 14.125 C26.70411349 22.52312074 25.68425954 31.9196157 25.4296875 40.59765625 C25.40355761 43.20790794 25.38363769 45.81822856 25.36965942 48.42857361 C25.32629105 54.5817148 25.21163107 60.73133758 25.07076657 66.88293499 C24.91380483 73.8909752 24.83719249 80.89919145 24.76703048 87.9085542 C24.62103171 102.31584419 24.37508809 116.7203729 24.0625 131.125 C20.38910196 128.69533606 16.85188051 126.20104767 13.375 123.5 C-36.65121663 87.25788876 -109.17654426 82.63039954 -168.73852539 82.91918945 C-172.63369304 82.93754096 -176.52862145 82.9396972 -180.42382812 82.93945312 C-196.28246864 82.96229718 -212.09786198 83.34937407 -227.9375 84.125 C-227.00434879 83.02562509 -226.06962916 81.92758136 -225.13427734 80.83007812 C-224.61392914 80.21845825 -224.09358093 79.60683838 -223.5574646 78.97668457 C-221.01429799 76.06974304 -218.30407556 73.34361978 -215.5625 70.625 C-214.99015625 70.05458984 -214.4178125 69.48417969 -213.828125 68.89648438 C-210.36461296 65.46823434 -206.81197646 62.21353937 -203.09375 59.0625 C-199.48664646 55.8213345 -196.12571105 52.33237621 -192.71704102 48.88500977 C-189.27713479 45.42113554 -185.7519615 42.15375066 -182.02734375 38.99609375 C-179.21839466 36.4811655 -176.58641383 33.80664678 -173.9375 31.125 C-170.71351619 27.86117703 -167.50232179 24.65669881 -164 21.6875 C-160.27792307 18.52490018 -156.86883928 15.09529304 -153.4375 11.625 C-149.4528003 7.5951159 -145.44280896 3.72160389 -141.09375 0.08203125 C-139.2496749 -1.59166734 -137.55211689 -3.30481473 -135.84375 -5.11328125 C-135.28300781 -5.69980469 -134.72226563 -6.28632812 -134.14453125 -6.890625 C-133.03465496 -8.05891583 -131.9374424 -9.23941542 -130.85546875 -10.43359375 C-126.87898618 -14.59755317 -123.60757158 -16.08856004 -117.9375 -16.875 C-117.1846875 -16.98336182 -116.431875 -17.09172363 -115.65625 -17.20336914 C-76.19445716 -22.22878332 -36.12716294 -16.89961898 0 0 Z " transform="translate(266.9375,56.875)"/>
<path d="M0 0 C0.66 0 1.32 0 2 0 C3.13818359 1.53442383 3.13818359 1.53442383 4.3984375 3.70703125 C5.10915405 4.91540649 5.10915405 4.91540649 5.83422852 6.14819336 C6.5969104 7.46702515 6.5969104 7.46702515 7.375 8.8125 C8.45247048 10.6443814 9.53195295 12.47508065 10.61328125 14.3046875 C11.44786865 15.71766113 11.44786865 15.71766113 12.29931641 17.15917969 C15.46090092 22.44028756 18.77254251 27.62565734 22.07763672 32.81762695 C29 43.69410291 29 43.69410291 29 46 C15.87496365 46.23672267 2.88096301 45.48868253 -10.21069336 44.62304688 C-12.51053489 44.4748106 -14.81040664 44.32704247 -17.11030579 44.17970276 C-22.03316698 43.86339903 -26.95581101 43.54396345 -31.87830925 43.22206116 C-39.67604217 42.71229398 -47.47427534 42.21048767 -55.27259827 41.70983887 C-66.21635208 41.00668052 -77.15990408 40.30045517 -88.10327148 39.59130859 C-89.14168816 39.52401976 -89.14168816 39.52401976 -90.20108295 39.45537156 C-96.51833795 39.0459807 -102.83557639 38.6363346 -109.15280914 38.22660065 C-113.35732106 37.95389988 -117.56183702 37.6812614 -121.76635742 37.40869141 C-122.45747295 37.36388647 -123.14858847 37.31908154 -123.8606469 37.27291888 C-135.42666339 36.5232268 -146.99295577 35.77787928 -158.55944353 35.03549433 C-166.29740878 34.53853628 -174.03501417 34.03639379 -181.7723788 33.53017426 C-186.60107498 33.21535898 -191.43005621 32.90509716 -196.25912285 32.59602165 C-198.48228703 32.45281216 -200.70533345 32.3077595 -202.92824173 32.16063118 C-225.51100274 28.99712177 -225.51100274 28.99712177 -246.03125 34.62109375 C-256.03210521 41.62566099 -271.40354681 41.67790746 -283.06933594 39.63818359 C-287.93404097 38.5092807 -292.42284393 36.89643353 -296.76211929 34.4300499 C-300.40904705 32.81933933 -302.57755609 32.72814714 -306.53265381 32.95123291 C-307.83256004 33.01640358 -309.13246628 33.08157425 -310.47176361 33.14871979 C-311.90274284 33.23720836 -313.33370388 33.32599151 -314.76464844 33.41503906 C-316.28338242 33.49732194 -317.80219743 33.57812054 -319.32108307 33.65755463 C-323.46374159 33.87828187 -327.6050035 34.11931658 -331.7463274 34.36365032 C-336.16678282 34.62074372 -340.5882746 34.85856741 -345.00970459 35.09820557 C-352.51311657 35.50705625 -360.01586979 35.92650041 -367.51831055 36.3527832 C-378.68873435 36.98667448 -389.86066538 37.59022747 -401.03320312 38.18554688 C-402.8638951 38.28324377 -404.69458612 38.38095853 -406.52527618 38.4786911 C-409.27316914 38.62537871 -412.0210628 38.7720527 -414.76896143 38.91863394 C-423.9556846 39.40891911 -433.14211346 39.90460899 -442.32848454 40.40144253 C-445.08570188 40.55055725 -447.8429261 40.69954458 -450.60015106 40.84851837 C-459.96744919 41.35484231 -469.33462726 41.86330407 -478.70166016 42.37451172 C-487.12047198 42.83394427 -495.53947449 43.28970028 -503.95870566 43.74138474 C-508.34184953 43.97668723 -512.72488072 44.21373952 -517.10767365 44.45549774 C-551.42148647 46.34656951 -551.42148647 46.34656951 -567 46 C-565.24237075 42.3278541 -563.07042424 39.34316839 -560.5625 36.125 C-560.12655518 35.56417725 -559.69061035 35.00335449 -559.24145508 34.42553711 C-557.83133754 32.61410347 -556.41592161 30.80689929 -555 29 C-554.0233684 27.74875185 -553.046806 26.49744968 -552.0703125 25.24609375 C-551.10974338 24.01794096 -550.14881531 22.79006882 -549.1875 21.5625 C-548.74414307 20.99611816 -548.30078613 20.42973633 -547.84399414 19.84619141 C-544.95857528 16.17620285 -542.0529831 12.53250924 -539 9 C-538.67 9 -538.34 9 -538 9 C-538 13.62 -538 18.24 -538 23 C-536.02 22.67 -534.04 22.34 -532 22 C-529.17378498 21.82139518 -526.36121255 21.6788028 -523.53244019 21.57603455 C-522.27419046 21.52575028 -522.27419046 21.52575028 -520.99052155 21.47445017 C-518.18635683 21.36334296 -515.3820131 21.25771903 -512.57763672 21.15209961 C-510.5630828 21.07344958 -508.54854145 20.99447716 -506.53401184 20.91520691 C-501.05965871 20.70085925 -495.5851276 20.49143402 -490.11053991 20.28317332 C-485.52241681 20.10821325 -480.93438513 19.93091783 -476.34635079 19.75364786 C-465.4947059 19.33443167 -454.64291136 18.91925972 -443.79101562 18.5065918 C-432.66110598 18.08328283 -421.53146845 17.65330812 -410.4019469 17.21992487 C-400.80756136 16.84656011 -391.21301848 16.47744369 -381.61834347 16.11159331 C-375.90646693 15.89375688 -370.19465872 15.67442929 -364.48299789 15.45100212 C-323.67162567 13.8581049 -323.67162567 13.8581049 -306.53564453 13.74047852 C-305.45818907 13.72650748 -304.3807336 13.71253645 -303.27062798 13.69814205 C-295.90739021 13.70686952 -289.74509781 14.91652944 -282.98046875 17.80859375 C-279.6263824 19.14934911 -276.58349478 19.61798202 -273 20 C-272.27554687 20.07863281 -271.55109375 20.15726563 -270.8046875 20.23828125 C-263.85157113 20.5057088 -257.43380324 18.5292139 -251 16 C-250.34 15.34 -249.68 14.68 -249 14 C-247.1069212 13.74170685 -247.1069212 13.74170685 -244.69841003 13.73547363 C-243.75346585 13.73156364 -242.80852167 13.72765366 -241.83494282 13.72362518 C-240.75914557 13.7329734 -239.68334833 13.74232162 -238.57495117 13.75195312 C-237.40319179 13.75773628 -236.2314324 13.76351944 -235.02416515 13.76947784 C-214.8177489 13.97221188 -194.62120942 14.97233364 -174.43410516 15.81736183 C-168.28445487 16.07359671 -162.13454645 16.32348462 -155.98466492 16.57409668 C-144.38310916 17.0478083 -132.7817904 17.52708182 -121.1805498 18.00844336 C-107.9542362 18.55695483 -94.7276651 19.09912939 -81.50107062 19.6408186 C-54.33375827 20.75358337 -27.16678243 21.87437833 0 23 C0 15.41 0 7.82 0 0 Z " transform="translate(568,193)"/>
<path d="M0 0 C0.86656219 0.00060425 1.73312439 0.0012085 2.62594604 0.00183105 C54.77240878 0.09962542 105.66962083 8.14755629 155.1875 24.4375 C155.84469025 24.65200806 156.50188049 24.86651611 157.1789856 25.08752441 C159.04676319 25.70044269 160.91020329 26.32653084 162.7734375 26.953125 C164.37904541 27.49114746 164.37904541 27.49114746 166.01708984 28.04003906 C168.70056521 29.14155297 170.54614083 30.41407802 172.8125 32.1875 C160.95803253 33.10799714 149.1225697 33.48596051 137.23803711 33.76000977 C135.20929828 33.80914892 133.18056614 33.85856482 131.15184021 33.90823364 C125.68508775 34.04125557 120.21824854 34.17031857 114.75138164 34.2985394 C109.00571772 34.43389211 103.26013561 34.57263843 97.51454163 34.71092224 C87.87066678 34.94252435 78.22673565 35.17165046 68.58276367 35.39916992 C57.46219328 35.66154466 46.34170851 35.92732703 35.22126573 36.19505268 C24.48440281 36.45350737 13.74749478 36.71003571 3.01056099 36.96552849 C-1.54130769 37.07384696 -6.0931621 37.18273868 -10.64500618 37.29208565 C-16.0122652 37.42089789 -21.37956251 37.54798523 -26.74689293 37.67378616 C-28.70674608 37.71997582 -30.66658629 37.76671858 -32.62641144 37.81408119 C-43.14956844 38.06799507 -53.66055967 38.25747037 -64.1875 38.1875 C-65.08674358 31.001108 -65.48396056 23.86040051 -65.75 16.625 C-65.79318359 15.52091797 -65.83636719 14.41683594 -65.88085938 13.27929688 C-65.98594387 10.58212815 -66.08809413 7.88488297 -66.1875 5.1875 C-59.68155593 3.78129634 -53.25090689 2.74399211 -46.625 2.125 C-45.85865234 2.04701172 -45.09230469 1.96902344 -44.30273438 1.88867188 C-29.5481653 0.45469368 -14.81606966 -0.01932741 0 0 Z " transform="translate(102.1875,168.8125)"/>
<path d="M0 0 C2.265625 2.48828125 2.265625 2.48828125 4.1875 4.9375 C5.5310301 6.19892548 6.88426789 7.45014671 8.25 8.6875 C10.83477821 11.19012144 11.98350337 13.55017935 13.1875 16.9375 C12.14078125 16.793125 11.0940625 16.64875 10.015625 16.5 C-11.4784437 13.76889744 -33.3491965 14.0382392 -54.8125 16.9375 C-55.73385742 17.06108887 -56.65521484 17.18467773 -57.60449219 17.31201172 C-77.04217464 20.02355856 -96.25748386 24.51836192 -114.8125 30.9375 C-113.81621582 30.76621582 -112.81993164 30.59493164 -111.79345703 30.41845703 C-108.00333272 29.76830835 -104.2120421 29.12517912 -100.42041016 28.48388672 C-98.79705069 28.20837852 -97.17398908 27.931108 -95.55126953 27.65185547 C-15.36919126 13.865117 -15.36919126 13.865117 10.59765625 31.70703125 C12.66730687 33.3088493 14.51666814 34.91857816 16.1875 36.9375 C16.1875 37.5975 16.1875 38.2575 16.1875 38.9375 C10.73230549 39.04308441 5.29900329 39.01827263 -0.1484375 38.71484375 C-68.32862894 34.931214 -147.26197284 34.90304089 -208.8125 67.9375 C-207.46977674 64.82472879 -206.15790842 63.14083117 -203.41796875 61.16015625 C-202.72131104 60.65363525 -202.02465332 60.14711426 -201.30688477 59.62524414 C-200.16497681 58.82074829 -200.16497681 58.82074829 -199 58 C-198.19812256 57.43079834 -197.39624512 56.86159668 -196.57006836 56.27514648 C-164.19662996 33.56970898 -36.26643607 -29.202192 0 0 Z " transform="translate(531.8125,120.0625)"/>
<path d="M0 0 C1.95187225 0.00102722 1.95187225 0.00102722 3.94317627 0.0020752 C7.6939823 0.00859246 11.4445669 0.02498669 15.1953125 0.046875 C16.86986511 0.0534613 16.86986511 0.0534613 18.57824707 0.06018066 C25.39112259 0.12089227 32.10103886 0.51883693 38.875 1.25 C39.0032097 12.63217194 38.6456628 23.89465161 37.875 35.25 C36.33984741 35.06824219 36.33984741 35.06824219 34.77368164 34.8828125 C25.03259005 33.73155368 15.29109502 32.58379452 5.54223633 31.5 C4.08226447 31.33630667 2.62261021 31.16974927 1.16333008 31 C-27.64957111 27.65520793 -56.38578928 26.91772683 -85.35961914 26.98925781 C-89.99754209 27.00062602 -94.63523451 26.99389767 -99.27314949 26.98235321 C-118.86277546 26.94136935 -138.36217887 27.22948646 -157.91181946 28.5512085 C-165.32967985 29.05257597 -172.6880491 29.38824167 -180.125 29.25 C-177.7883578 26.9133578 -176.22540079 26.48690841 -173.0859375 25.515625 C-171.5222644 25.03005127 -171.5222644 25.03005127 -169.92700195 24.53466797 C-168.79609131 24.19322754 -167.66518066 23.85178711 -166.5 23.5 C-165.32719482 23.14437988 -164.15438965 22.78875977 -162.94604492 22.42236328 C-131.97003883 13.15060522 -100.24229892 6.91343046 -68.125 3.25 C-66.83207031 3.09901855 -65.53914063 2.94803711 -64.20703125 2.79248047 C-42.83125361 0.36242392 -21.49786372 -0.01640833 0 0 Z " transform="translate(516.125,168.75)"/>
<path d="M0 0 C1.51676834 0.00090637 1.51676834 0.00090637 3.06417847 0.00183105 C63.81185661 0.10004203 133.26447902 8.14067705 183.6875 45.1875 C181.6875 46.1875 181.6875 46.1875 179.95776367 45.67773438 C179.26400635 45.38189453 178.57024902 45.08605469 177.85546875 44.78125 C177.06914062 44.45326416 176.2828125 44.12527832 175.47265625 43.78735352 C174.61542969 43.42440186 173.75820313 43.0614502 172.875 42.6875 C125.46874443 23.31442574 72.61183896 13.06538862 21.4375 13.01953125 C20.09065724 13.0162986 18.74381478 13.01293324 17.39697266 13.00944519 C14.58332512 13.00350343 11.76970803 13.0015996 8.95605469 13.00219727 C6.13893084 13.00227766 3.32197263 12.99546717 0.50488281 12.98168945 C-18.8701329 12.88825655 -37.9952276 13.58166985 -57.3125 15.1875 C-57.3125 11.2275 -57.3125 7.2675 -57.3125 3.1875 C-54.66729155 2.86883746 -52.02149827 2.55763088 -49.375 2.25 C-48.65892578 2.16298828 -47.94285156 2.07597656 -47.20507812 1.98632812 C-31.50945216 0.18300089 -15.78050551 -0.01750238 0 0 Z " transform="translate(96.3125,149.8125)"/>
</svg>
