<svg width="26" height="26" viewBox="0 0 26 26" fill="none" xmlns="http://www.w3.org/2000/svg">
<path d="M8.52273 4.2544C8.62302 3.69909 8.51624 3.12987 8.22589 2.67197C7.93553 2.21406 7.48538 1.90497 6.97446 1.8127C6.46354 1.72042 5.93371 1.85252 5.50152 2.17994C5.06933 2.50735 4.77019 3.00326 4.6699 3.55856L1.89683 18.913C1.79654 19.4683 1.90332 20.0375 2.19368 20.4954C2.48403 20.9533 2.93419 21.2624 3.4451 21.3547C3.95602 21.447 4.48585 21.3149 4.91804 20.9875C5.35023 20.66 5.64938 20.1641 5.74967 19.6088L5.80361 19.3101C8.89308 18.0793 12.0346 17.779 15.2057 18.0058L14.0018 21.6974C13.9305 21.8927 13.8994 22.1015 13.9108 22.3087C13.9223 22.5159 13.9759 22.7165 14.0679 22.8962C14.1599 23.0759 14.2881 23.2304 14.4432 23.3485C14.5984 23.4665 14.7767 23.5454 14.9656 23.5795L15.6693 23.7066C15.919 23.7516 16.1775 23.7167 16.4132 23.6059C16.649 23.4951 16.8518 23.3134 16.9967 23.0829L20.2525 18.6405C20.3392 18.6546 20.426 18.6688 20.5127 18.6831C21.1942 18.7987 21.8982 18.6178 22.4723 18.1798C23.0463 17.7417 23.4442 17.0817 23.5797 16.3428L24.0839 13.551C24.2152 12.8112 24.0738 12.0537 23.6902 11.4418C23.3066 10.8298 22.7115 10.4122 22.0331 10.2792C20.9725 10.0714 19.9157 9.84452 18.8631 9.59854C14.9939 8.67777 11.1814 6.98746 8.46904 4.55172L8.52273 4.2544ZM7.23845 4.02245L4.46539 19.3769C4.43196 19.562 4.33224 19.7273 4.18818 19.8364C4.04412 19.9456 3.86751 19.9896 3.6972 19.9588C3.5269 19.9281 3.37684 19.8251 3.28006 19.6724C3.18327 19.5198 3.14768 19.33 3.18111 19.1449L5.95418 3.79051C5.98761 3.60541 6.08732 3.4401 6.23138 3.33097C6.37545 3.22183 6.55206 3.17779 6.72236 3.20855C6.89267 3.23931 7.04272 3.34234 7.13951 3.49498C7.23629 3.64761 7.27188 3.83735 7.23845 4.02245ZM8.1824 6.13881C10.889 8.36449 14.4078 9.91818 17.9441 10.8321L16.877 16.7408C16.6433 16.713 16.4104 16.6883 16.1783 16.6665C12.8326 16.3347 9.44987 16.5237 6.09126 17.7174L8.1824 6.13881ZM18.1741 16.9016L19.2153 11.1367C20.0617 11.3245 20.9101 11.5028 21.7605 11.6713C22.1029 11.7377 22.4036 11.9475 22.5979 12.2556C22.7922 12.5638 22.8647 12.9457 22.7996 13.3191L22.2954 16.1108C22.1568 16.8785 21.4675 17.4056 20.7491 17.2859C19.8932 17.1424 19.0348 17.0143 18.1741 16.9016ZM18.7721 18.4149L15.9401 22.2809L15.9212 22.3121L15.2174 22.185L15.2235 22.1659L16.5402 18.1286C17.2856 18.2133 18.0297 18.3083 18.7724 18.4135L18.7721 18.4149Z" fill="#FFFBFB"/>
<circle cx="20" cy="6" r="6" fill="#FFCA19"/>
</svg>
