<svg width="47" height="51" viewBox="0 0 47 51" fill="none" xmlns="http://www.w3.org/2000/svg">
<rect x="8.98901" y="19.7422" width="35.9155" height="23.2394" rx="4.22535" fill="#9EA5D1"/>
<mask id="mask0_2304_5214" style="mask-type:alpha" maskUnits="userSpaceOnUse" x="8" y="19" width="37" height="24">
<rect x="8.98901" y="19.7422" width="35.9155" height="23.2394" rx="4.22535" fill="#4E5BA6"/>
</mask>
<g mask="url(#mask0_2304_5214)">
<rect opacity="0.5" x="18.8481" y="27.8965" width="13.116" height="13.7951" rx="6.55801" transform="rotate(-20.6869 18.8481 27.8965)" fill="white"/>
<path d="M26.7808 30.4367C26.5568 30.5148 26.3196 30.3956 26.1345 30.2472C26.0385 30.1703 25.9257 30.1148 25.7961 30.0808C25.5249 30.0079 25.2231 30.0294 24.8906 30.1453C24.6525 30.2282 24.4598 30.3378 24.3123 30.4739C24.1642 30.6082 24.0647 30.7573 24.0137 30.9212C23.9641 31.0826 23.9678 31.2454 24.0251 31.4098C24.0732 31.5477 24.1468 31.6555 24.2459 31.7333C24.3469 31.8104 24.4622 31.8645 24.5917 31.8956C24.7224 31.9242 24.8571 31.9398 24.9957 31.9423C25.1336 31.943 25.2642 31.9377 25.3874 31.9266L26.0055 31.8764C26.2065 31.8572 26.4178 31.8525 26.6393 31.8621C26.8609 31.8717 27.0769 31.9109 27.2872 31.9795C27.4976 32.0482 27.6864 32.1582 27.8536 32.3097C28.0227 32.4605 28.1526 32.6663 28.2435 32.927C28.3581 33.2557 28.3748 33.5772 28.2936 33.8915C28.2144 34.2052 28.0398 34.4916 27.77 34.7509C27.5021 35.0095 27.1414 35.2179 26.688 35.3759C26.2535 35.5273 25.8535 35.5894 25.4881 35.5621C25.1226 35.5348 24.8061 35.4258 24.5384 35.2352C24.3959 35.133 24.2715 35.0097 24.165 34.8652C24.005 34.648 24.1389 34.3575 24.3936 34.2687C24.625 34.188 24.8686 34.3144 25.0512 34.4779C25.0941 34.5162 25.1403 34.55 25.19 34.5791C25.359 34.6748 25.5488 34.7241 25.7596 34.727C25.9715 34.7273 26.1899 34.6882 26.4147 34.6099C26.6622 34.5236 26.8688 34.4082 27.0345 34.2636C27.2014 34.1164 27.3163 33.9535 27.379 33.7749C27.4411 33.5943 27.4392 33.4096 27.3734 33.2207C27.3135 33.0488 27.2153 32.9251 27.0789 32.8498C26.9444 32.7738 26.7815 32.7289 26.5902 32.715C26.4008 32.7005 26.1927 32.7021 25.9658 32.7197L25.2148 32.7717C24.7059 32.8071 24.2727 32.7494 23.9151 32.5986C23.5593 32.4471 23.311 32.1693 23.1701 31.765C23.0536 31.4306 23.0425 31.1071 23.137 30.7945C23.2314 30.482 23.4095 30.2027 23.6713 29.9568C23.9324 29.7091 24.2576 29.5174 24.6467 29.3817C25.0397 29.2448 25.4104 29.1929 25.7588 29.2262C26.1092 29.2587 26.4134 29.3656 26.6715 29.5469C26.7994 29.636 26.9099 29.7412 27.0029 29.8623C27.1624 30.07 27.0281 30.3505 26.7808 30.4367Z" fill="white"/>
<path d="M29.3972 27.5101C29.6376 27.4263 29.8919 27.5935 29.9103 27.8474L30.4036 34.6485C30.4163 34.823 30.3103 34.9843 30.1451 35.0418C29.9047 35.1256 29.6504 34.9584 29.6319 34.7045L29.1387 27.9034C29.126 27.7289 29.232 27.5677 29.3972 27.5101Z" fill="white"/>
<circle cx="42.7914" cy="21.1514" r="16.9014" fill="#ECFDF3" fill-opacity="0.1"/>
<circle cx="44.1999" cy="12.7002" r="16.9014" fill="#ECFDF3" fill-opacity="0.1"/>
<rect x="13.2144" y="23.9668" width="9.15493" height="6.33803" rx="2.11268" fill="white"/>
<rect x="13.2144" y="34.5312" width="9.15493" height="1.40845" rx="0.704225" fill="white"/>
</g>
<rect x="1.94745" y="20.457" width="35.9155" height="23.2394" rx="2.8169" transform="rotate(-20.6869 1.94745 20.457)" fill="#4E5BA6"/>
<mask id="mask1_2304_5214" style="mask-type:alpha" maskUnits="userSpaceOnUse" x="2" y="8" width="41" height="34">
<rect x="1.94745" y="20.457" width="35.9155" height="23.2394" rx="2.8169" transform="rotate(-20.6869 1.94745 20.457)" fill="#4E5BA6"/>
</mask>
<g mask="url(#mask1_2304_5214)">
<circle cx="34.0681" cy="9.8352" r="16.9014" transform="rotate(-20.6869 34.0681 9.8352)" fill="#ECFDF3" fill-opacity="0.1"/>
<circle cx="32.4004" cy="1.4309" r="16.9014" transform="rotate(-20.6869 32.4004 1.4309)" fill="#ECFDF3" fill-opacity="0.1"/>
<rect opacity="0.5" x="14.6235" y="20.8535" width="13.116" height="13.7951" rx="6.55801" transform="rotate(-20.6869 14.6235 20.8535)" fill="white"/>
<path d="M22.5562 23.3938C22.3321 23.4718 22.0949 23.3527 21.9098 23.2042C21.8139 23.1273 21.7011 23.0718 21.5714 23.0378C21.3002 22.9649 20.9984 22.9864 20.6659 23.1023C20.4279 23.1853 20.2351 23.2948 20.0876 23.4309C19.9395 23.5652 19.84 23.7143 19.7891 23.8782C19.7394 24.0396 19.7432 24.2025 19.8005 24.3668C19.8485 24.5047 19.9221 24.6126 20.0212 24.6903C20.1223 24.7674 20.2375 24.8215 20.367 24.8527C20.4977 24.8812 20.6324 24.8968 20.771 24.8994C20.9089 24.9 21.0395 24.8948 21.1628 24.8836L21.7809 24.8334C21.9818 24.8143 22.1931 24.8095 22.4147 24.8191C22.6362 24.8288 22.8522 24.8679 23.0626 24.9366C23.2729 25.0052 23.4617 25.1153 23.6289 25.2667C23.798 25.4176 23.928 25.6233 24.0188 25.884C24.1334 26.2127 24.1501 26.5343 24.069 26.8486C23.9897 27.1622 23.8152 27.4487 23.5454 27.7079C23.2774 27.9666 22.9168 28.1749 22.4634 28.3329C22.0288 28.4843 21.6289 28.5464 21.2634 28.5191C20.898 28.4918 20.5814 28.3828 20.3137 28.1922C20.1713 28.0901 20.0468 27.9667 19.9404 27.8222C19.7804 27.605 19.9142 27.3145 20.169 27.2257C20.4004 27.1451 20.6439 27.2715 20.8265 27.4349C20.8694 27.4733 20.9157 27.507 20.9653 27.5361C21.1343 27.6319 21.3242 27.6812 21.5349 27.684C21.7469 27.6843 21.9652 27.6453 22.1901 27.5669C22.4375 27.4807 22.6441 27.3652 22.8098 27.2206C22.9768 27.0735 23.0916 26.9106 23.1544 26.7319C23.2164 26.5514 23.2146 26.3666 23.1487 26.1777C23.0888 26.0058 22.9906 25.8822 22.8542 25.8068C22.7197 25.7308 22.5568 25.6859 22.3655 25.6721C22.1761 25.6576 21.968 25.6591 21.7411 25.6768L20.9901 25.7287C20.4813 25.7641 20.048 25.7064 19.6904 25.5556C19.3346 25.4042 19.0863 25.1263 18.9454 24.722C18.8289 24.3876 18.8178 24.0641 18.9123 23.7516C19.0068 23.439 19.1849 23.1598 19.4466 22.9139C19.7077 22.6661 20.0329 22.4744 20.4221 22.3388C20.815 22.2018 21.1857 22.15 21.5342 22.1832C21.8845 22.2158 22.1887 22.3227 22.4468 22.5039C22.5747 22.593 22.6852 22.6982 22.7782 22.8193C22.9378 23.0271 22.8035 23.3076 22.5562 23.3938Z" fill="white"/>
<path d="M25.1725 20.4671C25.4129 20.3833 25.6673 20.5506 25.6857 20.8044L26.179 27.6056C26.1916 27.78 26.0856 27.9413 25.9204 27.9989C25.6801 28.0826 25.4257 27.9154 25.4073 27.6615L24.914 20.8604C24.9013 20.6859 25.0073 20.5247 25.1725 20.4671Z" fill="white"/>
<path fill-rule="evenodd" clip-rule="evenodd" d="M10.6477 18.9964C10.5099 18.6327 10.8686 18.1596 11.4489 17.9396L26.0844 12.3923C26.6647 12.1723 27.2469 12.2888 27.3848 12.6525C27.5226 13.0162 27.1639 13.4893 26.5836 13.7093L11.9481 19.2566C11.3678 19.4766 10.7856 19.3601 10.6477 18.9964Z" fill="white" fill-opacity="0.3"/>
<path fill-rule="evenodd" clip-rule="evenodd" d="M18.3942 36.6038C18.2564 36.2401 18.6151 35.767 19.1954 35.547L33.8309 29.9997C34.4112 29.7798 34.9934 29.8963 35.1313 30.2599C35.2691 30.6236 34.9104 31.0968 34.3301 31.3167L19.6946 36.8641C19.1143 37.084 18.5321 36.9675 18.3942 36.6038Z" fill="white" fill-opacity="0.3"/>
</g>
</svg>
