<svg width="22" height="22" viewBox="0 0 22 22" fill="none" xmlns="http://www.w3.org/2000/svg">
<g clip-path="url(#clip0_1317_1332)">
<path d="M15.25 14C14.8358 14 14.5 14.3358 14.5 14.75C14.5 15.1642 14.8358 15.5 15.25 15.5H17.75C18.1642 15.5 18.5 15.1642 18.5 14.75C18.5 14.3358 18.1642 14 17.75 14H15.25ZM4.25 4.5C2.73122 4.5 1.5 5.73122 1.5 7.25V15.75C1.5 17.2688 2.73122 18.5 4.25 18.5H18.75C20.2688 18.5 21.5 17.2688 21.5 15.75V7.25C21.5 5.73122 20.2688 4.5 18.75 4.5H4.25ZM3 15.75V10.5H20V15.75C20 16.4404 19.4404 17 18.75 17H4.25C3.55964 17 3 16.4404 3 15.75ZM3 9V7.25C3 6.55964 3.55964 6 4.25 6H18.75C19.4404 6 20 6.55964 20 7.25V9H3Z" fill="#E10600"/>
</g>
<defs>
<clipPath id="clip0_1317_1332">
<rect width="21" height="21" fill="white" transform="translate(0.5 0.5)"/>
</clipPath>
</defs>
</svg>
