<svg width="47" height="51" viewBox="0 0 47 51" fill="none" xmlns="http://www.w3.org/2000/svg">
<path fill-rule="evenodd" clip-rule="evenodd" d="M13.2273 11.6384C12.4383 10.8086 11.0415 11.217 10.8238 12.3411L10.0105 16.54C7.33363 18.6808 6.04787 20.916 5.31096 22.594C5.23461 22.588 5.15743 22.5849 5.07955 22.5849C3.46283 22.5849 2.15222 23.8956 2.15222 25.5123V27.7078C2.15222 29.3245 3.46283 30.6351 5.07955 30.6351C5.14206 30.6351 5.2041 30.6331 5.26564 30.6293C6.80403 33.1583 10.9368 36.8244 15.1364 38.3798C15.3138 38.4455 15.4969 38.5093 15.6852 38.5712V40.7586C15.6852 42.3753 16.9958 43.686 18.6125 43.686C20.2292 43.686 21.5398 42.3753 21.5398 40.7586V39.714C23.9419 39.9477 26.5031 39.9597 28.8585 39.7045V40.7586C28.8585 42.3753 30.1691 43.686 31.7858 43.686C33.4025 43.686 34.7131 42.3753 34.7131 40.7586V38.5631C34.7131 38.4481 34.7065 38.3345 34.6935 38.2229C39.5152 36.0021 44.2267 32.1803 44.2267 25.3905C44.2267 18.4381 36.9084 14.5219 34.347 13.4976C27.9943 10.9571 20.6336 11.0682 15.1364 13.4977C15.1031 13.5124 15.07 13.5271 15.0369 13.5418L13.2273 11.6384Z" fill="#4E5BA6"/>
<path d="M21.5336 40.7727V39.7713C21.5336 39.7713 19.606 39.5295 18.4328 39.3162C17.2596 39.1028 15.7075 38.5879 15.7075 38.5879V39.8623C15.7075 39.8623 17.4412 40.4123 18.6206 40.5906C19.7887 40.7673 21.5336 40.7727 21.5336 40.7727Z" fill="#3E4784"/>
<path d="M28.9065 40.7716L28.9065 39.6792C28.9065 39.6792 30.8331 39.3461 31.9653 39.0795C33.0975 38.813 34.7326 38.2227 34.7326 38.2227L34.7319 39.502C34.7319 39.502 32.981 40.1356 31.8412 40.3673C30.7122 40.5968 28.9065 40.7716 28.9065 40.7716Z" fill="#3E4784"/>
<path fill-rule="evenodd" clip-rule="evenodd" d="M32.2053 15.2501C33.3675 15.7591 34.864 15.4668 35.0724 14.2152C35.122 13.918 35.1517 13.6138 35.1601 13.304C35.2591 9.66773 32.3916 6.63968 28.7554 6.54064C25.1191 6.44161 22.091 9.3091 21.992 12.9454C21.9616 14.061 23.1484 14.641 24.2441 14.429C25.1981 14.2444 26.2139 14.1582 27.2657 14.1868C29.0803 14.2362 30.7692 14.6212 32.2053 15.2501Z" fill="#FFD547"/>
<path fill-rule="evenodd" clip-rule="evenodd" d="M34.7088 13.0121C35.0082 13.0495 35.2205 13.3225 35.1831 13.6218C35.0922 14.3488 34.9968 14.9737 34.8834 15.4C34.8302 15.5997 34.7565 15.8243 34.6377 15.9922C34.5778 16.0769 34.4623 16.2109 34.2711 16.2734C34.0471 16.3466 33.8408 16.2848 33.6985 16.1888C30.4967 14.0299 26.7787 14.0464 25.5445 14.2709C25.2477 14.3248 24.9634 14.128 24.9094 13.8312C24.8555 13.5344 25.0523 13.25 25.3491 13.1961C26.7239 12.9461 30.4731 12.9264 33.8587 14.9939C33.9397 14.6451 34.0182 14.1336 34.0991 13.4863C34.1365 13.187 34.4095 12.9747 34.7088 13.0121Z" fill="#FFCA19"/>
<circle cx="29.6164" cy="13.4047" r="7.74648" fill="#039855"/>
<path fill-rule="evenodd" clip-rule="evenodd" d="M33.2156 11.604C33.4222 11.3577 33.3966 10.9744 33.1584 10.7478C32.9201 10.5213 32.5595 10.5373 32.3528 10.7836L29.0749 14.69L27.6994 13.0507C27.598 12.9299 27.3227 13.0155 27.0845 13.242C26.8462 13.4685 26.7353 13.7501 26.8367 13.8709L28.5457 15.9076C28.5779 15.9738 28.6219 16.0352 28.6775 16.088C28.9157 16.3145 29.2764 16.2985 29.483 16.0522L33.2156 11.604Z" fill="white"/>
</svg>
