<svg width="22" height="22" viewBox="0 0 22 22" fill="none" xmlns="http://www.w3.org/2000/svg">
<path d="M3.66663 5.75C3.66663 4.50736 4.67399 3.5 5.91663 3.5H14.4166C15.6593 3.5 16.6666 4.50736 16.6666 5.75V13.5H20.1666V16.75C20.1666 18.5449 18.7116 20 16.9166 20H6.91663C5.1217 20 3.66663 18.5449 3.66663 16.75V5.75ZM16.6666 15V18.5H16.9166C17.8831 18.5 18.6666 17.7165 18.6666 16.75V15H16.6666ZM15.1666 18.5V5.75C15.1666 5.33579 14.8308 5 14.4166 5H5.91663C5.50241 5 5.16663 5.33579 5.16663 5.75V16.75C5.16663 17.7165 5.95013 18.5 6.91663 18.5H15.1666ZM6.66664 8.25C6.66664 7.83579 7.00242 7.5 7.41664 7.5H12.9166C13.3309 7.5 13.6666 7.83579 13.6666 8.25C13.6666 8.66422 13.3309 9 12.9166 9H7.41664C7.00242 9 6.66664 8.66422 6.66664 8.25ZM6.66664 11.75C6.66664 11.3358 7.00242 11 7.41664 11H12.9166C13.3309 11 13.6666 11.3358 13.6666 11.75C13.6666 12.1642 13.3309 12.5 12.9166 12.5H7.41664C7.00242 12.5 6.66664 12.1642 6.66664 11.75ZM6.66664 15.25C6.66664 14.8358 7.00242 14.5 7.41664 14.5H9.91664C10.3309 14.5 10.6666 14.8358 10.6666 15.25C10.6666 15.6642 10.3309 16 9.91664 16H7.41664C7.00242 16 6.66664 15.6642 6.66664 15.25Z" fill="#E10600"/>
</svg>
