<svg width="22" height="22" viewBox="0 0 22 22" fill="none" xmlns="http://www.w3.org/2000/svg">
<g clip-path="url(#clip0_1317_1344)">
<path d="M5.52693 11.4999L2.13265 2.77174C1.89641 2.16427 2.48875 1.58334 3.07472 1.78983L3.16706 1.82909L21.1671 10.8291C21.6853 11.0882 21.7177 11.7977 21.2642 12.1132L21.1671 12.1707L3.16706 21.1707C2.58408 21.4622 1.95078 20.9262 2.10211 20.3237L2.13265 20.2281L5.52693 11.4999L2.13265 2.77174L5.52693 11.4999ZM4.23542 4.04032L6.84441 10.7493L13.472 10.7499C13.8517 10.7499 14.1655 11.0321 14.2151 11.3981L14.222 11.4999C14.222 11.8796 13.9398 12.1934 13.5737 12.2431L13.472 12.2499L6.84441 12.2493L4.23542 18.9595L19.1546 11.4999L4.23542 4.04032Z" fill="#E10600"/>
</g>
<defs>
<clipPath id="clip0_1317_1344">
<rect width="21" height="21" fill="white" transform="translate(0.833313 0.5)"/>
</clipPath>
</defs>
</svg>
