<svg width="47" height="52" viewBox="0 0 47 52" fill="none" xmlns="http://www.w3.org/2000/svg">
<path d="M8.8884 10.7344C7.89034 10.7344 6.93315 11.1239 6.22741 11.8173C5.52168 12.5106 5.1252 13.451 5.1252 14.4316V35.3823H40.2484V14.4316C40.2484 13.451 39.852 12.5106 39.1462 11.8173C38.4405 11.1239 37.4833 10.7344 36.4852 10.7344H8.8884ZM2.61639 36.6147H42.7572C42.7572 37.5952 42.3608 38.5356 41.655 39.229C40.9493 39.9223 39.9921 40.3118 38.994 40.3118H6.3796C5.38153 40.3118 4.42435 39.9223 3.71861 39.229C3.01287 38.5356 2.61639 37.5952 2.61639 36.6147Z" fill="#4E5BA6"/>
<rect x="7.78528" y="13.9043" width="30.2817" height="19.7183" rx="1.40845" fill="#717BBC"/>
<path d="M28.0868 22.8858L21.3139 17.7351C20.3866 17.0299 19.0529 17.7197 19.0529 18.8847V22.3537V25.5227V29.2133C19.0529 30.1775 20.1402 30.7408 20.9278 30.1846L28.0467 25.1574C28.8242 24.6083 28.8445 23.4621 28.0868 22.8858Z" fill="#9EA5D1"/>
</svg>
