<svg width="47" height="52" viewBox="0 0 47 52" fill="none" xmlns="http://www.w3.org/2000/svg">
<path d="M9.38822 10.9844C8.39015 10.9844 7.43297 11.3739 6.72723 12.0673C6.02149 12.7606 5.62501 13.701 5.62501 14.6816V35.6323H40.7483V14.6816C40.7483 13.701 40.3518 12.7606 39.646 12.0673C38.9403 11.3739 37.9831 10.9844 36.9851 10.9844H9.38822ZM3.11621 36.8647H43.2571C43.2571 37.8452 42.8606 38.7856 42.1548 39.479C41.4491 40.1723 40.4919 40.5618 39.4939 40.5618H6.87942C5.88135 40.5618 4.92417 40.1723 4.21843 39.479C3.51269 38.7856 3.11621 37.8452 3.11621 36.8647Z" fill="#4E5BA6"/>
<rect x="8.2851" y="14.1543" width="30.2817" height="19.7183" rx="1.40845" fill="#717BBC"/>
<path d="M23.1655 18.3779L17.7142 22.6333C17.1635 23.0632 17.4675 23.9467 18.1662 23.9467C18.5718 23.9467 18.9007 24.2756 18.9007 24.6812V28.2392C18.9007 29.017 19.5313 29.6476 20.3091 29.6476H27.8209C28.5987 29.6476 29.2293 29.017 29.2293 28.2392V24.5599C29.2293 24.2212 29.5038 23.9467 29.8424 23.9467C30.4146 23.9467 30.6749 23.2325 30.237 22.8643L24.9385 18.4101C24.4292 17.982 23.6899 17.9686 23.1655 18.3779Z" fill="#9EA5D1"/>
</svg>
