<svg width="21" height="22" viewBox="0 0 21 22" fill="none" xmlns="http://www.w3.org/2000/svg">
<path d="M2 5.75C2 3.95507 3.45507 2.5 5.25 2.5H16.75C18.5449 2.5 20 3.95507 20 5.75V17.25C20 19.0449 18.5449 20.5 16.75 20.5H5.25C3.45507 20.5 2 19.0449 2 17.25V5.75ZM5.25 4C4.2835 4 3.5 4.7835 3.5 5.75V10.75H10.25V4H5.25ZM10.25 12.25H3.5V17.25C3.5 18.2165 4.2835 19 5.25 19H10.25V12.25ZM11.75 12.25V19H16.75C17.7165 19 18.5 18.2165 18.5 17.25V12.25H11.75ZM18.5 10.75V5.75C18.5 4.7835 17.7165 4 16.75 4H11.75V10.75H18.5Z" fill="#E10600"/>
</svg>
