<svg width="26" height="25" viewBox="0 0 26 25" fill="none" xmlns="http://www.w3.org/2000/svg">
<path d="M2.31152 15.9609C2.13249 16.0182 1.96061 16.0039 1.7959 15.918C1.63118 15.832 1.5166 15.6852 1.45215 15.4775C1.24447 14.7256 1.1084 14.0023 1.04395 13.3076C0.986654 12.6058 0.979492 11.9469 1.02246 11.3311C1.04395 11.1305 1.11914 10.973 1.24805 10.8584C1.37695 10.7438 1.54883 10.6937 1.76367 10.708C1.93555 10.7223 2.0752 10.7904 2.18262 10.9121C2.2972 11.0339 2.35091 11.1986 2.34375 11.4062C2.32227 12.1582 2.34375 12.8278 2.4082 13.415C2.47982 13.9951 2.58724 14.5609 2.73047 15.1123C2.77344 15.3057 2.75553 15.4847 2.67676 15.6494C2.60514 15.807 2.4834 15.9108 2.31152 15.9609ZM1.81738 9.45117C1.64551 9.38672 1.5166 9.25781 1.43066 9.06445C1.35189 8.87109 1.36621 8.63118 1.47363 8.34473C1.96777 7.03418 2.60156 5.88477 3.375 4.89648C4.1556 3.9082 5.04004 3.08105 6.02832 2.41504C7.02376 1.74902 8.09798 1.2513 9.25098 0.921875C10.404 0.592448 11.6035 0.427734 12.8496 0.427734C13.8809 0.427734 14.8262 0.531576 15.6855 0.739258C16.5521 0.939779 17.3971 1.29785 18.2207 1.81348C18.3854 1.91374 18.5036 2.03548 18.5752 2.17871C18.6468 2.31478 18.6396 2.47949 18.5537 2.67285C18.4678 2.86621 18.3281 2.97005 18.1348 2.98438C17.9414 2.9987 17.7373 2.94857 17.5225 2.83398C16.8851 2.48307 16.1833 2.21452 15.417 2.02832C14.6579 1.84212 13.8021 1.74902 12.8496 1.74902C11.4245 1.74902 10.0495 2.02474 8.72461 2.57617C7.39974 3.12044 6.2181 3.92969 5.17969 5.00391C4.14128 6.07096 3.33203 7.39941 2.75195 8.98926C2.67318 9.2041 2.54427 9.35091 2.36523 9.42969C2.1862 9.50846 2.00358 9.51562 1.81738 9.45117ZM24.3975 13.4473C24.2113 13.4473 24.0609 13.3828 23.9463 13.2539C23.8317 13.1178 23.7601 12.9531 23.7314 12.7598C23.5596 10.8333 23.1191 9.19694 22.4102 7.85059C21.7012 6.50423 20.806 5.31901 19.7246 4.29492C19.5599 4.14453 19.474 3.9834 19.4668 3.81152C19.4596 3.63249 19.5133 3.47852 19.6279 3.34961C19.7354 3.2207 19.8786 3.14551 20.0576 3.12402C20.2438 3.10254 20.4193 3.16699 20.584 3.31738C21.4147 4.06217 22.1309 4.87858 22.7324 5.7666C23.3411 6.65462 23.8317 7.66797 24.2041 8.80664C24.5837 9.94531 24.8522 11.2523 25.0098 12.7275C25.0241 12.9281 24.9704 13.0999 24.8486 13.2432C24.734 13.3792 24.5837 13.4473 24.3975 13.4473ZM3.51465 19.0869C3.41439 18.9508 3.375 18.7933 3.39648 18.6143C3.42513 18.4352 3.51107 18.2848 3.6543 18.1631C3.89062 17.9411 4.07324 17.6689 4.20215 17.3467C4.33822 17.0244 4.40625 16.6771 4.40625 16.3047C4.40625 15.9323 4.34896 15.5456 4.23438 15.1445C4.11979 14.7363 4.00521 14.2959 3.89062 13.8232C3.7832 13.3434 3.72949 12.8063 3.72949 12.2119C3.72949 10.973 3.96582 9.80566 4.43848 8.70996C4.91113 7.61426 5.56283 6.65104 6.39355 5.82031C7.23145 4.98958 8.19824 4.33789 9.29395 3.86523C10.3896 3.38542 11.557 3.14551 12.7959 3.14551C14.2712 3.14551 15.6032 3.4248 16.792 3.9834C17.988 4.54199 19.012 5.33691 19.8643 6.36816C20.7165 7.39941 21.3717 8.6276 21.8301 10.0527C22.2884 11.4779 22.5176 13.0605 22.5176 14.8008C22.5176 16.1185 22.4173 17.25 22.2168 18.1953C22.0234 19.1335 21.8229 19.8854 21.6152 20.4512C21.5508 20.6374 21.4219 20.7627 21.2285 20.8271C21.0352 20.8916 20.8561 20.888 20.6914 20.8164C20.541 20.7376 20.4336 20.6123 20.3691 20.4404C20.3118 20.2686 20.319 20.0895 20.3906 19.9033C20.5911 19.4307 20.7738 18.7682 20.9385 17.916C21.1104 17.0638 21.1963 16.029 21.1963 14.8115C21.1891 12.749 20.8382 10.9408 20.1436 9.38672C19.4561 7.83268 18.4857 6.6224 17.2324 5.75586C15.9792 4.88932 14.5003 4.45605 12.7959 4.45605C11.7432 4.45605 10.7477 4.66016 9.80957 5.06836C8.87142 5.47656 8.04427 6.03874 7.32812 6.75488C6.61914 7.47103 6.06055 8.2946 5.65234 9.22559C5.2513 10.1566 5.05078 11.152 5.05078 12.2119C5.05078 12.8278 5.10449 13.347 5.21191 13.7695C5.31934 14.1921 5.42676 14.6003 5.53418 14.9941C5.6416 15.3809 5.69531 15.8213 5.69531 16.3154C5.69531 16.8812 5.59505 17.4219 5.39453 17.9375C5.19401 18.446 4.90039 18.8649 4.51367 19.1943C4.34896 19.3376 4.16634 19.3949 3.96582 19.3662C3.77246 19.3376 3.62207 19.2445 3.51465 19.0869ZM6.13574 21.1172C5.92806 21.2318 5.73828 21.2568 5.56641 21.1924C5.39453 21.1351 5.27279 21.0277 5.20117 20.8701C5.13672 20.734 5.12598 20.5801 5.16895 20.4082C5.21908 20.2435 5.3444 20.0895 5.54492 19.9463C5.93164 19.6813 6.25391 19.3734 6.51172 19.0225C6.76953 18.6715 6.97005 18.2669 7.11328 17.8086C7.17773 17.6152 7.28874 17.4756 7.44629 17.3896C7.60384 17.3037 7.76497 17.2894 7.92969 17.3467C8.11589 17.4111 8.24479 17.5257 8.31641 17.6904C8.38802 17.8551 8.39876 18.0234 8.34863 18.1953C8.24837 18.5677 8.0765 18.9544 7.83301 19.3555C7.58952 19.7493 7.3138 20.1074 7.00586 20.4297C6.70508 20.752 6.41504 20.9811 6.13574 21.1172ZM8.4668 15.1123C8.52409 15.3057 8.52051 15.4883 8.45605 15.6602C8.39876 15.832 8.28418 15.9538 8.1123 16.0254C7.90462 16.1042 7.71484 16.1077 7.54297 16.0361C7.37109 15.9574 7.24577 15.8177 7.16699 15.6172C6.98796 15.1732 6.82324 14.6719 6.67285 14.1133C6.52246 13.5547 6.44727 12.9388 6.44727 12.2656C6.44727 11.3704 6.61198 10.5361 6.94141 9.7627C7.27083 8.9821 7.72559 8.30176 8.30566 7.72168C8.8929 7.13444 9.57324 6.67611 10.3467 6.34668C11.1201 6.01725 11.9544 5.85254 12.8496 5.85254C13.3939 5.85254 13.9167 5.92057 14.418 6.05664C14.9264 6.19271 15.3633 6.36458 15.7285 6.57227C15.9219 6.68685 16.0436 6.83724 16.0938 7.02344C16.151 7.20247 16.1331 7.37435 16.04 7.53906C15.9756 7.67513 15.8646 7.76465 15.707 7.80762C15.5566 7.85059 15.3919 7.8291 15.2129 7.74316C14.8978 7.59993 14.6328 7.48893 14.418 7.41016C14.2031 7.32422 13.9775 7.26693 13.7412 7.23828C13.512 7.20247 13.2148 7.18457 12.8496 7.18457C11.9043 7.18457 11.0485 7.41016 10.2822 7.86133C9.51595 8.3125 8.90723 8.9248 8.45605 9.69824C8.00488 10.4645 7.7793 11.3203 7.7793 12.2656C7.7793 12.8743 7.85807 13.4115 8.01562 13.877C8.17318 14.3353 8.32357 14.7471 8.4668 15.1123ZM16.9639 9.23633C16.835 9.03581 16.7884 8.83887 16.8242 8.64551C16.8672 8.45215 16.9746 8.30892 17.1465 8.21582C17.3112 8.12988 17.4867 8.11556 17.6729 8.17285C17.859 8.23014 18.0094 8.35189 18.124 8.53809C18.4463 9.06087 18.7327 9.63379 18.9834 10.2568C19.2412 10.8799 19.4417 11.6068 19.585 12.4375C19.7282 13.2611 19.7998 14.2279 19.7998 15.3379C19.7998 16.8418 19.5993 18.2705 19.1982 19.624C18.7972 20.9775 18.2637 22.1055 17.5977 23.0078C17.4759 23.1654 17.3148 23.2513 17.1143 23.2656C16.9137 23.2799 16.7419 23.2191 16.5986 23.083C16.4697 22.9613 16.4053 22.8073 16.4053 22.6211C16.4124 22.4421 16.4697 22.2845 16.5771 22.1484C17.1644 21.418 17.6299 20.4476 17.9736 19.2373C18.3245 18.027 18.5 16.7415 18.5 15.3809C18.5 14.099 18.3711 12.946 18.1133 11.9219C17.8555 10.8978 17.4723 10.0026 16.9639 9.23633ZM8.42383 22.5566C8.26628 22.6855 8.09082 22.7428 7.89746 22.7285C7.71126 22.7142 7.55729 22.6211 7.43555 22.4492C7.33529 22.2988 7.29948 22.1377 7.32812 21.9658C7.35677 21.8011 7.44629 21.6507 7.59668 21.5146C8.33431 20.9202 8.89648 20.1683 9.2832 19.2588C9.67708 18.3421 9.87044 17.3467 9.86328 16.2725C9.85612 15.7712 9.79525 15.2734 9.68066 14.7793C9.57324 14.2852 9.46582 13.8053 9.3584 13.3398C9.25098 12.8743 9.19727 12.4339 9.19727 12.0186C9.19727 11.3382 9.35482 10.7402 9.66992 10.2246C9.99219 9.70898 10.4255 9.30794 10.9697 9.02148C11.5212 8.73503 12.1406 8.5918 12.8281 8.5918C13.8307 8.5918 14.6328 8.87826 15.2344 9.45117C15.8359 10.0169 16.2728 10.7975 16.5449 11.793C16.8171 12.7812 16.9531 13.9092 16.9531 15.1768C16.9603 16.4085 16.8242 17.5902 16.5449 18.7217C16.2656 19.846 15.8861 20.8558 15.4062 21.751C14.9336 22.6462 14.4108 23.3551 13.8379 23.8779C13.6803 24.0212 13.5013 24.0785 13.3008 24.0498C13.1074 24.0283 12.957 23.9388 12.8496 23.7812C12.7565 23.6309 12.7243 23.4733 12.7529 23.3086C12.7816 23.1439 12.8639 23.0042 13 22.8896C13.5443 22.417 14.0277 21.7939 14.4502 21.0205C14.8727 20.2542 15.1986 19.3805 15.4277 18.3994C15.6569 17.4183 15.7536 16.3727 15.7178 15.2627C15.6891 14.2601 15.5781 13.3542 15.3848 12.5449C15.1986 11.7357 14.8978 11.0947 14.4824 10.6221C14.0742 10.1494 13.5228 9.91309 12.8281 9.91309C12.1335 9.91309 11.5713 10.1172 11.1416 10.5254C10.7119 10.9264 10.4971 11.4635 10.4971 12.1367C10.4971 12.4805 10.5508 12.8493 10.6582 13.2432C10.7728 13.637 10.8874 14.0811 11.002 14.5752C11.1237 15.0622 11.1882 15.6279 11.1953 16.2725C11.2025 17.54 10.9661 18.7253 10.4863 19.8281C10.0065 20.9238 9.31901 21.8333 8.42383 22.5566ZM10.9697 23.4268C10.805 23.5485 10.626 23.5951 10.4326 23.5664C10.2393 23.5449 10.0924 23.4518 9.99219 23.2871C9.89193 23.1367 9.8597 22.972 9.89551 22.793C9.93132 22.6211 10.0244 22.4779 10.1748 22.3633C10.5329 22.0697 10.873 21.7044 11.1953 21.2676C11.5176 20.8307 11.8076 20.2793 12.0654 19.6133C12.1299 19.4486 12.2373 19.3268 12.3877 19.248C12.5452 19.1621 12.7243 19.1549 12.9248 19.2266C13.111 19.2839 13.2292 19.402 13.2793 19.5811C13.3294 19.7529 13.3294 19.9141 13.2793 20.0645C13.0645 20.752 12.7314 21.4036 12.2803 22.0195C11.8363 22.6426 11.3994 23.1117 10.9697 23.4268ZM13.9346 17.4111C13.8988 17.6188 13.8021 17.7764 13.6445 17.8838C13.4941 17.9912 13.3223 18.027 13.1289 17.9912C12.9284 17.9554 12.7852 17.8659 12.6992 17.7227C12.6204 17.5723 12.599 17.4076 12.6348 17.2285C12.7207 16.7702 12.7637 16.3011 12.7637 15.8213C12.7708 15.3343 12.735 14.8366 12.6562 14.3281C12.5846 13.8197 12.4665 13.304 12.3018 12.7812C12.2445 12.5807 12.2588 12.4053 12.3447 12.2549C12.4307 12.0973 12.5596 11.9899 12.7314 11.9326C12.9105 11.8753 13.0788 11.8932 13.2363 11.9863C13.3939 12.0723 13.5085 12.2227 13.5801 12.4375C13.7591 12.9818 13.8916 13.5439 13.9775 14.124C14.0635 14.6969 14.1029 15.2663 14.0957 15.832C14.0885 16.3906 14.0348 16.917 13.9346 17.4111Z" fill="#E10600"/>
</svg>
