<svg width="22" height="24" viewBox="0 0 22 24" fill="none" xmlns="http://www.w3.org/2000/svg">
<path d="M10.9998 13.332C13.4842 13.332 15.4998 11.3164 15.4998 8.83203C15.4998 6.34766 13.4842 4.33203 10.9998 4.33203C8.51544 4.33203 6.49982 6.34766 6.49982 8.83203C6.49982 11.3164 8.51544 13.332 10.9998 13.332ZM14.9998 14.332H13.2779C12.5842 14.6508 11.8123 14.832 10.9998 14.832C10.1873 14.832 9.41857 14.6508 8.72169 14.332H6.99982C4.79044 14.332 2.99982 16.1227 2.99982 18.332V18.832C2.99982 19.6602 3.67169 20.332 4.49982 20.332H17.4998C18.3279 20.332 18.9998 19.6602 18.9998 18.832V18.332C18.9998 16.1227 17.2092 14.332 14.9998 14.332Z" fill="#4E5BA6"/>
</svg>
