<svg width="74" height="64" viewBox="0 0 74 64" fill="none" xmlns="http://www.w3.org/2000/svg">
<mask id="mask0_1317_1295" style="mask-type:luminance" maskUnits="userSpaceOnUse" x="0" y="8" width="69" height="19">
<path fill-rule="evenodd" clip-rule="evenodd" d="M0.0108948 8.45288H68.4499V26.2326H0.0108948V8.45288Z" fill="white"/>
</mask>
<g mask="url(#mask0_1317_1295)">
<path fill-rule="evenodd" clip-rule="evenodd" d="M5.70391 8.45264H62.7454C65.8825 8.45264 68.4496 10.9532 68.4496 14.0089V20.6761C68.4496 23.7325 65.8825 26.2323 62.7454 26.2323H5.70391C2.56686 26.2323 -0.000274658 23.7319 -0.000274658 20.6761V14.0089C-0.000274658 10.9532 2.56686 8.45264 5.70391 8.45264Z" fill="#A86A3F"/>
</g>
<path fill-rule="evenodd" clip-rule="evenodd" d="M18.4458 13.9153L54.0557 4.51857C55.2503 4.17903 56.5022 4.91507 56.8436 6.10383L62.7591 27.8398C63.1005 29.0286 62.3614 30.2736 61.1667 30.6131L14.8053 42.8961C13.6107 43.2359 12.3595 42.5004 12.0181 41.3116L7.69504 25.3491L18.4458 13.9153Z" fill="#F7F8FE"/>
<path opacity="0.2" fill-rule="evenodd" clip-rule="evenodd" d="M56.7425 27.0518L48.997 29.0705C48.3661 29.2386 47.7353 28.9016 47.6208 28.285C47.4485 27.6684 47.7928 27.0518 48.4238 26.9401L55.0788 25.2015L51.5222 12.1938L44.8666 13.9324C44.2356 14.1005 43.6047 13.7635 43.4894 13.1469C43.3173 12.5303 43.6615 11.9137 44.2932 11.8011L52.0386 9.78312C52.6695 9.61496 53.3005 9.95146 53.415 10.568L57.5462 25.7062C57.7185 26.3228 57.3741 26.9401 56.7425 27.0518ZM24.6134 35.5183L16.868 37.536C16.2371 37.7044 15.6054 37.3679 15.4908 36.7513L11.3604 21.6132C11.1881 20.9966 11.5325 20.3793 12.1634 20.2673L19.9088 18.2489C20.5398 18.0805 21.1715 18.4177 21.286 19.0343C21.4581 19.6509 21.1138 20.2673 20.4821 20.38L13.8272 22.1178L17.3844 35.1255L24.0395 33.3877C24.6703 33.2188 25.3019 33.5559 25.4165 34.1724C25.5886 34.7326 25.2444 35.3492 24.6134 35.5183Z" fill="#05603A"/>
<g filter="url(#filter0_d_1317_1295)">
<path fill-rule="evenodd" clip-rule="evenodd" d="M0.458908 21.7813C10.6717 16.0628 38.2109 0.307166 38.2109 0.307166C39.3013 -0.309249 40.7352 0.0270739 41.3669 1.0921L52.8418 20.3793C53.4726 21.445 53.0707 22.7907 51.9811 23.4072L9.98321 46.9556C8.89283 47.5722 7.45883 47.2357 6.82714 46.1708C6.82714 46.1708 3.61425 39.7793 0.401184 34.3963C0.401912 21.7813 0.458908 25.9306 0.458908 21.7813Z" fill="white"/>
</g>
<path opacity="0.2" fill-rule="evenodd" clip-rule="evenodd" d="M38.9571 6.19399L46.9891 19.7626C47.3334 20.3237 47.1044 20.9965 46.5879 21.2766L39.6456 25.2012C39.1291 25.5377 38.4406 25.3694 38.0963 24.8085C37.752 24.3039 37.9242 23.6317 38.4982 23.2952L44.4654 19.9309L37.5799 8.26906L31.6133 11.6326C31.0969 11.9691 30.4084 11.8008 30.0643 11.2406C29.7199 10.736 29.892 10.0631 30.4654 9.72664L37.4078 5.80197C37.9242 5.46565 38.6127 5.63381 38.9571 6.19399ZM10.6141 38.9944L16.5814 35.6299C17.1546 35.2936 17.8431 35.5182 18.1297 36.0222C18.4741 36.5268 18.302 37.1996 17.7286 37.536L10.7862 41.4606C10.2698 41.7971 9.58129 41.6288 9.23713 41.0686L1.20492 27.5C0.86076 26.9953 1.03284 26.3225 1.6068 25.986L8.54845 22.0613C9.06487 21.725 9.75337 21.8932 10.0977 22.4541C10.4421 22.9587 10.2698 23.6317 9.69583 23.9681L3.7293 27.3318L10.6141 38.9944ZM19.507 15.8382C15.0897 18.3051 13.5974 23.8 16.1218 28.1166C18.7039 32.434 24.2691 33.8916 28.6871 31.4247C33.1051 28.9576 34.5966 23.4635 32.0722 19.1462C29.4901 14.8851 23.9249 13.3713 19.507 15.8382Z" fill="#05603A"/>
<path fill-rule="evenodd" clip-rule="evenodd" d="M65.4064 63.9996H5.73745C2.58211 63.9996 0 61.4763 0 58.3928V18.0242H65.4064C68.5625 18.0242 71.1437 20.5468 71.1437 23.631V58.3928C71.1437 61.4763 68.5617 63.9996 65.4064 63.9996ZM4.59007 18.0249H0V13.5393C0 16.0062 2.06569 18.0249 4.59007 18.0249Z" fill="#C47E4D"/>
<path fill-rule="evenodd" clip-rule="evenodd" d="M70.8396 49.4028H61.7862C57.43 49.4028 53.8651 45.9336 53.8651 41.6937C53.8651 37.4546 57.43 33.9854 61.7862 33.9854H70.8396C72.0848 33.9854 73.1027 34.9766 73.1027 36.1881V47.1999C73.1027 48.4116 72.0848 49.4028 70.8396 49.4028Z" fill="#A86A3F"/>
<path fill-rule="evenodd" clip-rule="evenodd" d="M61.5598 37.8401C64.0289 37.8401 66.0489 39.8632 66.0489 42.3365C66.0489 44.8107 64.0294 46.8336 61.5598 46.8336C59.0917 46.8336 57.0714 44.8107 57.0714 42.3365C57.0714 39.8632 59.0917 37.8401 61.5598 37.8401Z" fill="#EFC75E"/>
<mask id="mask1_1317_1295" style="mask-type:luminance" maskUnits="userSpaceOnUse" x="0" y="12" width="72" height="52">
<path fill-rule="evenodd" clip-rule="evenodd" d="M0.0109558 12.864H71.1234V63.9978H0.0109558V12.864Z" fill="white"/>
</mask>
<g mask="url(#mask1_1317_1295)">
<path fill-rule="evenodd" clip-rule="evenodd" d="M63.0935 45.2484C60.5699 45.2484 58.5048 43.2028 58.5048 40.703C58.5048 39.7372 58.7913 38.8278 59.3076 38.0896C58.103 38.885 57.3577 40.2486 57.3577 41.839C57.3577 44.339 59.4221 46.3844 61.9458 46.3844C63.4946 46.3844 64.8714 45.5892 65.7317 44.453C64.9857 44.9644 64.0684 45.2484 63.0935 45.2484Z" fill="#D7B354"/>
<path fill-rule="evenodd" clip-rule="evenodd" d="M65.3877 61.7245H5.73579C2.58134 61.7245 -3.05176e-05 59.1683 -3.05176e-05 56.043V58.3159C-3.05176e-05 61.4405 2.58134 63.9975 5.73579 63.9975H65.3877C68.5429 63.9975 71.1234 61.4405 71.1234 58.3159V56.043C71.1234 59.1683 68.5422 61.7245 65.3877 61.7245Z" fill="#B27245"/>
<path fill-rule="evenodd" clip-rule="evenodd" d="M65.3874 17.4091H4.58846C2.06479 17.4091 -0.000305176 15.3636 -0.000305176 12.8638V15.136C-0.000305176 17.636 2.06479 19.6814 4.58846 19.6814H65.3874C68.5426 19.6814 71.1231 22.2383 71.1231 25.3629V23.0907C71.1231 19.9654 68.5419 17.4091 65.3874 17.4091Z" fill="#CA8B5F"/>
</g>
</svg>
