<?xml version="1.0" encoding="utf-8"?>
<!-- Generator: Adobe Illustrator 27.1.0, SVG Export Plug-In . SVG Version: 6.00 Build 0)  -->
<svg version="1.1" id="Layer_1" xmlns="http://www.w3.org/2000/svg" xmlns:xlink="http://www.w3.org/1999/xlink" x="0px" y="0px"
	 viewBox="0 0 200 200" style="enable-background:new 0 0 200 200;" xml:space="preserve">
<style type="text/css">
	.st0{fill:#E10600;}
</style>
<g>
	<g>
		<g>
			<path class="st0" d="M141.4,86.2c-9.2,0-17.9-3.6-24.4-10.1c-13.4-13.4-13.4-35.3,0-48.8c6.5-6.5,15.2-10.1,24.4-10.1
				c9.2,0,17.9,3.6,24.4,10.1c6.5,6.5,10.1,15.2,10.1,24.4c0,9.2-3.6,17.9-10.1,24.4l0,0l0,0C159.3,82.6,150.6,86.2,141.4,86.2z
				 M141.4,27.6c-6.4,0-12.5,2.5-17,7.1c-9.4,9.4-9.4,24.7,0,34.1c4.6,4.6,10.6,7.1,17,7.1s12.5-2.5,17-7.1l0,0
				c4.6-4.6,7.1-10.6,7.1-17c0-6.4-2.5-12.5-7.1-17C153.9,30.1,147.8,27.6,141.4,27.6z"/>
		</g>
		<g>
			<path class="st0" d="M156.3,57h-29.8c-2.9,0-5.2-2.3-5.2-5.2s2.3-5.2,5.2-5.2h29.8c2.9,0,5.2,2.3,5.2,5.2S159.1,57,156.3,57z"/>
		</g>
		<g>
			<path class="st0" d="M141.4,71.9c-2.9,0-5.2-2.3-5.2-5.2V36.9c0-2.9,2.3-5.2,5.2-5.2c2.9,0,5.2,2.3,5.2,5.2v29.8
				C146.6,69.6,144.2,71.9,141.4,71.9z"/>
		</g>
	</g>
	<g>
		<g>
			<path class="st0" d="M182.7,107.8c-5.1,0-9.9-2.2-12.7-5.6c-1.8-2.2-1.6-5.5,0.6-7.3c2.2-1.8,5.5-1.6,7.3,0.6
				c1.3,1.5,5.3,3,8.9,0.6c2.9-2,4.2-7,0.8-12.3c-1.5-2.4-0.8-5.6,1.6-7.2c2.4-1.5,5.6-0.8,7.2,1.6c6,9.5,4.5,20.8-3.7,26.4
				C189.5,106.8,186,107.8,182.7,107.8z"/>
		</g>
		<g>
			<path class="st0" d="M65.3,182.8c-1,0-1.9-0.2-2.9-0.5l-18.8-7.5c-4-1.6-6-6.2-4.4-10.2l4.6-11.7l-3-1.6
				c-8.3-6.2-15.1-14-19.6-22.6H10.6c-5.8,0-10.6-4.7-10.6-10.6V94.2c0-5.8,4.7-10.6,10.6-10.6h7.6c3.1-8.3,8.1-16,14.8-22.7
				l-0.5-15.2c-0.1-3.8,1.7-7.3,4.8-9.3c3.2-2.1,7.1-2.3,10.5-0.7l14.3,6.9c10.9-4.1,22.6-6.2,34.9-6.2c2.9,0,5.2,2.3,5.2,5.2
				s-2.3,5.2-5.2,5.2c-11.7,0-22.8,2.1-33.1,6.3l-2.1,0.9l-18.4-8.9l-0.4,0.3l0.7,19.9l-1.7,1.6c-7.2,6.7-12.3,14.8-14.9,23.4
				L25.8,94H10.6l-0.2,24l17.5,0.2l1.4,3c3.7,8.1,9.8,15.5,17.6,21.4L57,148l-7.1,18l14.1,5.6l7.6-18.1l4.6,1.5
				c0.1,0,10.4,3.4,20.7,3.4c7.3,0,14.6-0.9,21.5-2.6l12.9-3.2l10.3,16.7l13.1-7.7l-9.4-16l6.5-7.1c11-10.3,16.9-23,16.9-36
				c0-4.8-0.8-9.6-2.3-14.2c-0.9-2.7,0.5-5.7,3.3-6.6c2.7-0.9,5.7,0.5,6.6,3.3c1.9,5.7,2.9,11.6,2.9,17.5c0,15.9-7.1,31.3-19.9,43.3
				l-1.1,1.2l6.8,11.5c2.2,3.7,0.9,8.6-2.8,10.8l-17.4,10.2c-3.7,2.2-8.5,1-10.7-2.7l-7.6-12.3l-5.5,1.4c-7.8,1.9-15.8,2.9-24,2.9
				c-7.5,0-14.8-1.5-19.4-2.6L72.6,178C71.3,181,68.4,182.8,65.3,182.8z M139.5,170.7C139.5,170.7,139.5,170.7,139.5,170.7
				L139.5,170.7z M47.5,165.1L47.5,165.1C47.5,165.1,47.5,165.1,47.5,165.1z"/>
		</g>
	</g>
</g>
</svg>
