<?xml version="1.0" encoding="utf-8"?>
<!-- Generator: Adobe Illustrator 27.1.0, SVG Export Plug-In . SVG Version: 6.00 Build 0)  -->
<svg version="1.1" id="Layer_1" xmlns="http://www.w3.org/2000/svg" xmlns:xlink="http://www.w3.org/1999/xlink" x="0px" y="0px"
	 viewBox="0 0 200 200" style="enable-background:new 0 0 200 200;" xml:space="preserve">
<style type="text/css">
	.st0{fill:#E10600;}
</style>
<g>
	<g>
		<g>
			<path class="st0" d="M123.1,85.8c-8.9,0-17.2-3.5-23.5-9.7c-6.3-6.3-9.7-14.6-9.7-23.5c0-8.9,3.5-17.2,9.7-23.5
				c6.3-6.3,14.6-9.7,23.5-9.7s17.2,3.5,23.5,9.7c6.3,6.3,9.7,14.6,9.7,23.5c0,8.9-3.5,17.2-9.7,23.5l0,0l0,0l0,0
				C140.3,82.4,132,85.8,123.1,85.8z M123.1,29.4c-6.2,0-12,2.4-16.4,6.8c-4.4,4.4-6.8,10.2-6.8,16.4c0,6.2,2.4,12,6.8,16.4
				c4.4,4.4,10.2,6.8,16.4,6.8s12-2.4,16.4-6.8l0,0c4.4-4.4,6.8-10.2,6.8-16.4c0-6.2-2.4-12-6.8-16.4
				C135.1,31.8,129.3,29.4,123.1,29.4z"/>
		</g>
		<g>
			<path class="st0" d="M137.5,57.7h-28.7c-2.8,0-5-2.2-5-5s2.2-5,5-5h28.7c2.8,0,5,2.2,5,5S140.2,57.7,137.5,57.7z"/>
		</g>
		<g>
			<path class="st0" d="M123.1,72.1c-2.8,0-5-2.2-5-5V38.4c0-2.8,2.2-5,5-5s5,2.2,5,5v28.7C128.1,69.8,125.9,72.1,123.1,72.1z"/>
		</g>
	</g>
	<g>
		<path class="st0" d="M0.8,79.3C2.5,78.5,4.1,77,5.8,77c19.4,0,38.7-0.2,58.1,0.4c14.1,0.5,26.4,6.4,36.8,15.8
			c11.8,10.8,23.3,21.9,35,32.8c4.2,3.9,5.6,8.8,5.3,14.9c2.6,0,5.2,0,7.8,0c10-0.2,19.9-0.3,29.9-0.6c11.9-0.3,16.2,2.4,20.6,13
			c0,2.1,0,4.1,0,6.2c-2.6,7.3-7.3,12.1-15.4,13c-13.2,1.5-26.4,3.1-39.7,4.8c-8.4,1.1-16.8,2.3-25.2,3.4c-2.6,0-5.3,0-7.9,0
			c-0.7-0.2-1.3-0.6-2-0.7c-16.3-1.5-30.6-7.6-43.2-17.9c-8.7-7.2-17.7-14.2-25.8-22c-6.8-6.5-14-10.1-23.5-8.6
			c-3.2,0.5-6.5,0.3-9.7,0c-2-0.2-4-1.2-6-1.9C0.8,112.8,0.8,96,0.8,79.3z M8.8,124c6.5,0,12.7,0.2,18.8-0.1
			c3.4-0.1,6.1,0.8,8.7,3.1c11.1,9.6,22.3,19.1,33.6,28.4c14.9,12.2,31.8,18.8,51.3,16.8c20.4-2.1,40.7-5,61.1-7.5
			c6.2-0.8,9.4-4,9.1-9.1c-0.3-4.9-3.8-7.8-9.8-7.7c-14.2,0.2-28.5,0.5-42.7,0.9c-1.6,0-3.3,0.9-4.7,1.8c-4.7,2.9-9.8,3.9-14.7,1.4
			c-10.5-5.5-20.8-11.4-31-17.5c-1.2-0.7-1.3-3.4-1.9-5.1c1.8-0.5,3.6-1.3,5.4-1.3c1.2,0,2.3,1.1,3.5,1.8
			c8.2,4.6,16.3,9.3,24.5,13.9c4.9,2.7,9.2,2.2,11.8-1.4c2.6-3.6,1.9-7.7-2.2-11.6c-11.1-10.5-22.1-21.1-33.3-31.4
			c-10.7-9.8-23.4-14.8-38-14.9c-15.1-0.1-30.2,0-45.4,0c-1.3,0-2.6,0.1-4,0.2C8.8,97.9,8.8,110.6,8.8,124z"/>
	</g>
	<g>
		<path class="st0" d="M199.2,121.6c-1.3,4-4.1,6.7-8,8c-11.8,4.2-23.6,4.3-35.3,0c-6.3-2.3-7.8-5-7.8-11.7c0-8.8,0.1-17.6-0.1-26.4
			c-0.1-4.6,1.8-7.8,5.8-9.5c13-5.6,26.3-5.7,39.2,0.1c2.6,1.2,4.2,4.5,6.2,6.9C199.2,99.8,199.2,110.7,199.2,121.6z M190.9,98.7
			c-11.7,3.7-23.2,3.7-34.6,0.1c-1.1,6.8-0.7,8.4,5.4,9.1c7.7,0.9,15.7,0.9,23.4,0.1C191.3,107.2,191.5,105.9,190.9,98.7z
			 M156.3,114.4c-1.1,6.8-0.8,7.4,5.2,9.1c7.9,2.2,15.9,2.2,23.8,0c6.2-1.7,6.6-2.4,5.4-9.1C179.3,118,167.9,118.1,156.3,114.4z
			 M190.3,89.6c-7.7-5.6-27.5-5.5-33.8,0.3C164.7,95.3,183.7,95.1,190.3,89.6z"/>
	</g>
</g>
</svg>
