<?xml version="1.0" encoding="utf-8"?>
<!-- Generator: Adobe Illustrator 27.1.0, SVG Export Plug-In . SVG Version: 6.00 Build 0)  -->
<svg version="1.1" id="Layer_1" xmlns="http://www.w3.org/2000/svg" xmlns:xlink="http://www.w3.org/1999/xlink" x="0px" y="0px"
	 viewBox="0 0 200 200" style="enable-background:new 0 0 200 200;" xml:space="preserve">
<style type="text/css">
	.st0{fill:#E10600;}
</style>
<g>
	<g>
		<g>
			<path class="st0" d="M195,100.7c-9.3-5.1-18.6-10.1-27.9-15.1L155,90.3c0.4,0.2,0.7,0.3,1.1,0.4c10.6,5.8,21.2,11.6,32.3,17.7
				c-10.5,19.3-20.8,38.1-31.2,57.2c-40.8-22.2-80.8-44-121.3-66C46.3,80.4,56.6,61.5,67,42.4c5.3,2.8,9.9,5.3,14.6,7.8
				c3.4,1.9,15.8,8.6,29.4,16.1l1.4-2.4c1.4-2.4,1.7-5.3,0.9-7.9C93.8,45.3,74.1,34.4,67,30.5h-3.4c-3.1,4.4-6.2,8.8-9.5,13.5
				c-7.3-2.3-14.9-4.6-22.5-7c-6.2-1.9-7.7-1.1-9.6,4.9C15,64,8,86,1,108c-2.1,6.8-1.4,8.1,5.5,10.2c20.6,6.5,41.3,12.7,61.7,19.6
				c17.5,5.9,35.9,9.4,52.2,18.9c11.3,6.6,23,12.5,34.4,18.9c4.4,2.4,7.3,1.9,9.7-2.7c11.1-20.7,22.4-41.3,33.6-62
				C201.2,105.3,200.7,103.9,195,100.7z M57.6,124c-15.3-4.9-30.6-9.7-46.6-14.8c6.5-20.7,13-41.2,19.7-62.1
				c6.5,2.1,12.6,4,19.1,6.1c-7.9,14.5-15.5,28.4-23,42.4c-4,7.4-3.8,8.2,3.7,12.3C39.7,113,49,118,58.3,123.1
				C58.1,123.4,57.8,123.7,57.6,124z"/>
		</g>
		<g>
			<path class="st0" d="M131.2,99.7c-0.4-1.4-0.8-2.8-1.5-4.1l-9.2,3.6c0.7,1.2,1.1,2.7,1.2,4.2v0.6c0,5.4-4.4,9.7-9.8,9.6
				c-3,0-5.7-1.5-7.5-3.8c-1.3-1.7-2.1-3.8-2-6.1c0.1-2.6,1.2-4.9,3-6.6c-1.7-2.3-2.5-5.3-1.8-8.3v0c0.4-1.1,0.9-2.1,1.5-3.1
				c-5.2,2.1-9.5,6.4-11.4,11.7v0c-0.8,2-1.2,4.2-1.2,6.5c0,10.7,8.8,19.6,19.6,19.7c10.7,0,19.7-8.8,19.7-19.5
				C131.7,102.5,131.6,101.1,131.2,99.7z"/>
		</g>
		<g>
			<path class="st0" d="M153.2,104.1c-1.6,2.8,0.4,4.6,1.7,6.1c1.7,1.9,4.4,2.8,7,4.4c-4.7,8.6-9.3,17-14,25.6c-2.2-1.1-4.1-2-5.9-3
				c-3-1.6-5.9-2.2-7.9,1.2c-2,3.4,0,5.7,3,7.3c2.8,1.5,5.7,3,8.4,4.7c4.3,2.6,7.4,1.6,9.7-2.8c4-7.7,8.2-15.3,12.4-22.9
				c8.9-16,8.6-13.7-7.6-22.4c-0.2-0.1-0.4-0.2-0.5-0.2C155.2,100.1,154.2,102.4,153.2,104.1z"/>
		</g>
		<g>
			<path class="st0" d="M77.2,57.4c-2.6-2-5.8-1.8-7.9,1.5c-0.1,0.2-0.2,0.3-0.3,0.5c-6,11-12.1,21.9-17.7,33
				c-0.8,1.6,0.1,5.5,1.6,6.7c3.5,2.8,7.7,5,11.9,6.5c1.7,0.6,5.2-0.7,6-2.2c0.8-1.4-0.4-4.7-1.7-6.2c-1.6-1.8-4.4-2.7-7-4.2
				c4.6-8.4,9-16.5,13.6-25.2c2.9,1.4,5.1,2.8,7.6,3.8c3.1,1.2,6.3,0.5,6.5-3.1C90.1,60.2,81.7,60.8,77.2,57.4z"/>
		</g>
	</g>
	<g>
		<path class="st0" d="M189.3,53.7c5.8,2.6,5.6,10.8-0.3,13.1L153.2,81l-32.8,12.9c-6.2,2.5-12.1-4.3-8.8-10.1l12.3-21.6
			c1.2-2.1,1.2-4.6,0.1-6.8l-11.3-22.1c-3.1-6,3.1-12.5,9.2-9.7L154.1,38L189.3,53.7z"/>
	</g>
</g>
</svg>
