<?xml version="1.0" encoding="utf-8"?>
<!-- Generator: Adobe Illustrator 27.1.0, SVG Export Plug-In . SVG Version: 6.00 Build 0)  -->
<svg version="1.1" id="Layer_1" xmlns="http://www.w3.org/2000/svg" xmlns:xlink="http://www.w3.org/1999/xlink" x="0px" y="0px"
	 viewBox="0 0 200 200" style="enable-background:new 0 0 200 200;" xml:space="preserve">
<style type="text/css">
	.st0{fill:#E10600;}
</style>
<g>
	<g>
		<g>
			<path class="st0" d="M159.9,161.1H21.2C9.5,161.1,0,151.6,0,139.9V69.2C0,57.5,9.5,48,21.2,48h102c3.1,0,5.7,2.5,5.7,5.7
				c0,3.1-2.5,5.7-5.7,5.7h-102c-5.4,0-9.8,4.4-9.8,9.8v70.8c0,5.4,4.4,9.8,9.8,9.8h138.7c5.4,0,9.8-4.4,9.8-9.8V112
				c0-3.1,2.5-5.7,5.7-5.7s5.7,2.5,5.7,5.7v27.9C181,151.6,171.6,161.1,159.9,161.1z"/>
		</g>
		<g>
			<rect x="26.3" y="73.8" class="st0" width="34.3" height="23.9"/>
		</g>
		<g>
			<rect x="26.3" y="106.7" class="st0" width="120.8" height="10.7"/>
		</g>
		<g>
			<rect x="26.3" y="126" class="st0" width="120.8" height="10.7"/>
		</g>
	</g>
	<g>
		<path class="st0" d="M160.6,99c-7.7,0-15.4-2.9-21.3-8.8c-5.7-5.7-8.8-13.2-8.8-21.3s3.1-15.6,8.8-21.3c10-10,25.8-11.7,37.7-4
			c2.1,1.4,2.7,4.2,1.3,6.3c-1.4,2.1-4.2,2.7-6.3,1.3c-8.3-5.4-19.3-4.2-26.3,2.8c-4,4-6.2,9.2-6.2,14.9s2.2,10.9,6.2,14.9
			c8.2,8.2,21.5,8.2,29.7,0c3-3,5.1-6.9,5.8-11.1c0.4-2.5,2.8-4.1,5.3-3.7c2.5,0.4,4.1,2.8,3.7,5.3c-1.1,6.1-4,11.6-8.3,15.9
			C176,96.1,168.3,99,160.6,99z"/>
	</g>
	<g>
		<path class="st0" d="M160.9,83.9l-13.8-13.8c-1.8-1.8-1.8-4.6,0-6.4s4.6-1.8,6.4,0l7.7,7.7l31.2-27.7c1.9-1.7,4.7-1.5,6.4,0.4
			c1.7,1.9,1.5,4.7-0.4,6.4L160.9,83.9z"/>
	</g>
</g>
</svg>
