<?xml version="1.0" encoding="utf-8"?>
<!-- Generator: Adobe Illustrator 27.1.0, SVG Export Plug-In . SVG Version: 6.00 Build 0)  -->
<svg version="1.1" id="Layer_1" xmlns="http://www.w3.org/2000/svg" xmlns:xlink="http://www.w3.org/1999/xlink" x="0px" y="0px"
	 viewBox="0 0 200 200" style="enable-background:new 0 0 200 200;" xml:space="preserve">
<style type="text/css">
	.st0{fill:#E10600;}
</style>
<g>
	<g>
		<path class="st0" d="M160.7,137.1H39.3c-10.2,0-18.5-8.3-18.5-18.5v-62c0-10.2,8.3-18.5,18.5-18.5h121.5
			c10.2,0,18.5,8.3,18.5,18.5v62C179.3,128.8,171,137.1,160.7,137.1z M39.3,48c-4.7,0-8.6,3.9-8.6,8.6v62c0,4.7,3.9,8.6,8.6,8.6
			h121.5c4.7,0,8.6-3.9,8.6-8.6v-62c0-4.7-3.9-8.6-8.6-8.6H39.3z"/>
	</g>
	<g>
		<path class="st0" d="M170.5,161.9H29.5c-12.7,0-24.2-6.7-29.5-17.2l0,0h200l0,0C194.7,155.2,183.1,161.9,170.5,161.9z"/>
	</g>
	<g>
		<g>
			<path class="st0" d="M121.2,87.3L121.2,87.3C121.3,87.2,121.3,87.2,121.2,87.3c0-0.1,0-0.1,0-0.2v-0.2l0,0
				c-0.1-16.7-15-28.1-27.1-27.3c0,2.3,0,4.7,0,6.9c1.9,0.4,3.8,0.6,5.5,1.3c8.1,3,12.8,8.7,14,17.2l0.1,4.3
				c-1.1,8.7-5.9,14.5-14.1,17.6c-1.7,0.6-3.6,0.8-5.5,1.3c0,2.3,0,4.6,0,6.9c11.9,0.7,26.4-10.3,27-26.5l0.1,0v-1
				C121.2,87.3,121.3,87.3,121.2,87.3C121.3,87.3,121.3,87.3,121.2,87.3z"/>
		</g>
		<g>
			<path class="st0" d="M101.8,87.2C101.8,87.2,101.9,87.2,101.8,87.2c-4.9-3.9-9.5-7.5-14.2-11.2c0,3.9,0,7.5,0,11.2c0,0,0,0,0,0
				c0,0,0,0,0,0c0,3.6,0,7.2,0,11.2C92.3,94.7,96.9,91.2,101.8,87.2C101.9,87.2,101.8,87.2,101.8,87.2z"/>
		</g>
	</g>
</g>
</svg>
