<?xml version="1.0" encoding="utf-8"?>
<!-- Generator: Adobe Illustrator 27.1.0, SVG Export Plug-In . SVG Version: 6.00 Build 0)  -->
<svg version="1.1" id="Layer_1" xmlns="http://www.w3.org/2000/svg" xmlns:xlink="http://www.w3.org/1999/xlink" x="0px" y="0px"
	 viewBox="0 0 200 200" style="enable-background:new 0 0 200 200;" xml:space="preserve">
<style type="text/css">
	.st0{fill:#E10600;}
</style>
<g>
	<g>
		<g>
			<path class="st0" d="M130.9,167.7c-8.8,0-15.6-4.6-15.7-12.6h9.1c0.2,3.4,2.5,5.6,6.4,5.6c4,0,6.4-2.1,6.4-5.1
				c0-9.1-21.8-3.6-21.7-19c0-7.6,6.2-12.2,14.9-12.2c8.7,0,14.6,4.4,15.2,12H136c-0.2-2.8-2.4-5-6.1-5c-3.3-0.1-5.8,1.5-5.8,5
				c0,8.5,21.7,3.8,21.7,18.7C145.8,161.7,140.5,167.7,130.9,167.7z"/>
		</g>
		<g>
			<path class="st0" d="M157.2,124.3h8.1l-11.3,44.4h-8.1L157.2,124.3z"/>
		</g>
	</g>
	<g>
		<g>
			<path class="st0" d="M144.5,96c10.9,1.6,20.4,5.3,28.3,12.3c18.2,16.1,22.1,43.1,9.1,63.5c-13.1,20.5-39,28.6-61.3,18.7
				c-3.3-1.4-6-1.6-8.9,0.1c-8.9,5.3-17.7,5.6-26.6,0.1c-5.2-3.2-10.3-3-15.4,0c-8.5,5.1-17.1,5.6-25.7,0.3
				c-5.6-3.4-11.1-3.2-16.9,0c-3.2,1.8-6.7,2.9-10.2,4.1c-3.9,1.3-6.1-0.2-6.5-4.3c-0.1-1.2,0-2.3,0-3.5c0-55.7,0.1-111.5-0.1-167.2
				c0-5.3,1.9-7.6,6.6-10.1c12.4-6.5,24.2-7.7,36.6-0.3c1.6,1,4.8,0.9,6.5-0.1c11.8-6.9,23.3-6.8,35.1,0c1.8,1,5.2,0.9,6.9-0.1
				c11.9-7,23.1-6.3,35.2,0.1c5.1,2.7,7.5,5,7.4,11c-0.3,23.1-0.1,46.2-0.1,69.4C144.5,91.9,144.5,93.9,144.5,96z M136,97.5
				c0-26.8,0-51.7-0.1-76.6c0-1-0.9-2.6-1.8-3c-8.1-3.5-16.1-8.2-25.2-1.9c-6.5,4.5-13.7,4.5-20.5,0.3c-7.4-4.5-14.6-4.3-22,0.1
				c-6.1,3.6-12.4,4.4-18.7,0.4c-8.1-5-16-4.5-24.3-0.1c-3.3,1.7-4.5,3.4-4.5,7c0.1,51.9,0.1,103.8,0.1,155.7c0,1.7,0,3.5,0,5.6
				c1.6-0.4,2.5-0.4,3.1-0.8c9.4-6.1,18.8-5.1,28,0.3c4.4,2.6,8.8,2.6,13.1-0.1c9.5-5.9,19-5.8,28.5,0c5.6,3.5,10.7,2,16.1-1.6
				c-10.9-9.9-16.4-22.3-17-37.3c-2.3,0-4.1,0-5.8,0c-15.3,0-30.6,0-45.9,0c-1.3,0-3,0.4-3.9-0.2c-1.5-1-3.2-2.6-3.3-4.1
				c-0.1-1.1,1.8-2.8,3.2-3.7c1-0.6,2.6-0.2,3.9-0.2c16.1,0,32.3,0,48.4-0.1c1.6,0,4.1-0.9,4.6-2.1c1.5-3.1,2.1-6.5,3.2-10.4
				c-2,0-3.7,0-5.3,0c-15.5,0-30.9,0-46.4,0c-2.7,0-5.5,0.5-7.9-0.3c-1.6-0.5-3.5-2.5-3.8-4.2c-0.2-1,2.2-2.8,3.7-3.7
				c1-0.6,2.6-0.2,3.9-0.2c19,0,37.9,0,56.9,0c1.6,0,3.7,0,4.7-0.9c3.8-3.7,7.1-7.7,10.9-11.8c-1.5,0-3.2,0-4.9,0
				c-22.6,0-45.2,0-67.9,0c-1.5,0-3.3,0.4-4.4-0.3c-1.3-0.8-2.8-2.5-2.9-4c-0.1-1.1,1.5-2.8,2.8-3.6c1-0.6,2.6-0.3,3.9-0.3
				c27.4,0,54.9,0,82.3,0c1.3,0,2.7,0,4,0.2C128.2,96.1,131.7,96.7,136,97.5z M178.8,145.6c0.1-21.2-17.1-38.7-38.3-38.7
				c-21.1-0.1-38.6,17.2-38.8,38.4c-0.2,21.1,17.2,38.6,38.4,38.6C161.4,184,178.6,166.9,178.8,145.6z"/>
		</g>
		<g>
			<path class="st0" d="M79.1,61.6c-13.8,0-27.6,0-41.4,0c-3.1,0-6.1-0.3-6.1-4.1c0-3.7,3-4.2,6.1-4.2c27.9,0,55.9,0,83.8,0
				c3.1,0,6.1,0.3,6.1,4.1c0,3.8-3,4.1-6.1,4.1C107.3,61.6,93.2,61.6,79.1,61.6z"/>
		</g>
		<g>
			<path class="st0" d="M79.3,82.6c-13.8,0-27.6,0-41.4,0c-3,0-6.2-0.2-6.3-3.9c-0.1-4.1,3.2-4.4,6.4-4.3c27.8,0,55.5,0,83.3,0
				c3,0,6.1,0.1,6.2,4c0.1,4.2-3.2,4.3-6.3,4.3C107.2,82.5,93.3,82.6,79.3,82.6z"/>
		</g>
		<g>
			<path class="st0" d="M77.6,40.8c-6.5,0-12.9,0-19.4,0c-2.9,0-5.7-0.7-5.7-4c0-3.7,2.8-4.3,6-4.3c12.8,0.1,25.5,0.1,38.3,0
				c3,0,5.6,0.6,5.7,4c0.1,3.5-2.4,4.3-5.4,4.3C90.6,40.7,84.1,40.8,77.6,40.8z"/>
		</g>
	</g>
</g>
</svg>
