<?xml version="1.0" standalone="no"?>
<!DOCTYPE svg PUBLIC "-//W3C//DTD SVG 20010904//EN"
 "http://www.w3.org/TR/2001/REC-SVG-20010904/DTD/svg10.dtd">
<svg version="1.0" xmlns="http://www.w3.org/2000/svg" viewBox="0 0 300 300"
 preserveAspectRatio="xMidYMid meet">

<g transform="translate(-130.000000,450.000000) scale(0.100000,-0.100000)"
fill="#000000" stroke="none">
<path d="M1832 4514 l-22 -15 0 -832 c0 -815 1 -833 21 -877 28 -62 542 -580
614 -618 l50 -27 290 -3 c186 -2 300 0 318 7 40 15 54 53 33 86 l-16 25 -283
0 c-165 0 -298 4 -319 11 l-38 10 0 242 c0 203 -3 246 -16 265 -15 22 -18 22
-264 22 -236 0 -250 1 -260 19 -7 13 -10 281 -10 800 l0 781 795 0 795 0 0
-657 0 -657 -137 136 c-76 74 -148 140 -159 146 -155 81 -353 -26 -371 -200
-8 -76 15 -138 80 -220 28 -36 89 -114 135 -173 l82 -107 0 -126 c0 -147 18
-245 56 -310 61 -103 158 -178 269 -207 80 -20 121 -19 145 5 44 44 12 93 -68
103 -113 13 -209 83 -255 185 -18 40 -22 73 -27 223 l-5 175 -41 50 c-99 121
-236 307 -246 334 -33 97 63 198 162 170 25 -7 100 -75 280 -255 214 -213 250
-245 276 -245 33 0 64 26 64 54 0 10 -27 46 -60 80 l-60 63 0 756 c0 744 0
757 -20 777 -20 20 -33 20 -893 20 -774 0 -875 -2 -895 -16z m528 -1959 c0
-74 -3 -135 -8 -135 -4 0 -68 61 -142 135 l-135 135 143 0 142 0 0 -135z"/>
<path d="M2436 4138 c-22 -32 -20 -64 6 -82 19 -14 64 -16 285 -16 250 0 264
1 283 20 11 11 20 29 20 40 0 11 -9 29 -20 40 -19 19 -33 20 -289 20 -268 0
-270 0 -285 -22z"/>
<path d="M2223 3913 c-28 -6 -45 -27 -45 -58 0 -57 -21 -55 543 -55 457 0 519
2 533 16 20 19 20 54 2 80 -14 18 -32 19 -513 20 -274 1 -508 0 -520 -3z"/>
<path d="M2198 3653 c-8 -10 -18 -24 -22 -30 -7 -13 10 -53 28 -65 6 -4 238
-8 516 -8 556 0 550 -1 550 59 0 63 15 61 -547 61 -473 0 -511 -1 -525 -17z"/>
<path d="M3728 3623 c-41 -48 -38 -52 111 -213 64 -69 127 -140 140 -158 35
-51 71 -160 71 -221 0 -29 -23 -270 -51 -535 -49 -464 -50 -483 -35 -532 9
-28 16 -55 16 -60 0 -5 -152 -9 -365 -9 -336 0 -366 -1 -382 -18 -26 -25 -32
-216 -9 -252 21 -32 52 -40 81 -21 22 14 24 24 27 93 l3 78 428 3 427 2 0 -70
c0 -62 3 -74 25 -95 28 -29 42 -31 73 -9 21 14 22 23 22 133 0 152 -1 153
-113 159 l-86 4 -21 63 c-23 70 -29 -17 45 683 19 184 35 354 35 377 0 71 -19
145 -60 230 -32 67 -62 105 -180 233 -146 158 -169 173 -202 135z"/>
<path d="M1325 30 c-4 -6 -240 -11 -668 -12 l-662 -3 680 -5 c374 -3 681 -5
683 -4 1 1 0 9 -4 18 -7 18 -20 21 -29 6z"/>
</g>
</svg>
