<?xml version="1.0" encoding="utf-8"?>
<!-- Generator: Adobe Illustrator 27.1.0, SVG Export Plug-In . SVG Version: 6.00 Build 0)  -->
<svg version="1.1" id="Layer_1" xmlns="http://www.w3.org/2000/svg" xmlns:xlink="http://www.w3.org/1999/xlink" x="0px" y="0px"
	 viewBox="0 0 131 135" style="enable-background:new 0 0 131 135;" xml:space="preserve">
<style type="text/css">
	.st0{fill-rule:evenodd;clip-rule:evenodd;fill:#DC000A;}
</style>
<path class="st0" d="M15.9,60.5h32.5c2.1,0,3.9,1.9,3.9,4.3v13c0,2.4-1.7,4.3-3.9,4.3h-7.4c1.5,0,3.6-0.1,3.4-3.5v-1.4H19.9v1.4
	c0,1.6,0.2,3.6,3.4,3.5h-7.4c-2.1,0-3.9-1.9-3.9-4.3v-13C12,62.5,13.7,60.5,15.9,60.5L15.9,60.5z M109.8,73.5c0-0.2,0.2-0.4,0.5-0.4
	l0,0l2.8,0h2.8c0.2,0,0.4,0.2,0.4,0.4l0,0v1.6l-3.2,0h-3.3V73.5L109.8,73.5z M116.4,82.1h2.6l0-9.9c0-0.7-0.7-1.2-1.5-1.2l0,0h-4.4
	l-4.6,0c-0.8,0-1.5,0.5-1.5,1.2l0,9.9h2.8l0-4.7l3.3,0l3.2,0L116.4,82.1L116.4,82.1z M69.8,75.2v-1.6c0-0.2,0.2-0.4,0.5-0.4l0,0H73
	h2.8c0.2,0,0.4,0.2,0.4,0.4l0,0v1.6H73L69.8,75.2L69.8,75.2z M73.3,71h-4.6c-0.8,0-1.5,0.5-1.5,1.2l0,0l0,9.9H70l0-4.7h3.3l3.2,0
	l0,4.7h2.6l0-9.9c0-0.7-0.7-1.2-1.5-1.2l0,0H73.3L73.3,71z M80.5,72.4l0,8.2c0,0.8,0.8,1.5,1.7,1.5l0,0l8.5,0c1,0,1.8-0.7,1.8-1.5
	l0,0v-2.7l-2.6,0v1.6c0,0.2-0.2,0.4-0.4,0.4l0,0h-6c-0.2,0-0.4-0.2-0.4-0.4l0,0l0-5.9c0-0.2,0.2-0.4,0.4-0.4l0,0l5.9,0
	c0.2,0,0.4,0.2,0.4,0.4l0,0v1.5h2.6l0-2.7c0-0.8-0.8-1.5-1.8-1.5l0,0h-8.5C81.2,71,80.5,71.6,80.5,72.4L80.5,72.4L80.5,72.4z
	 M105.7,82.1v-9.9c0-0.7-0.6-1.2-1.5-1.2l0,0l-10.5,0v1.2l0,9.9h2.8l0-8.5c0-0.2,0.2-0.4,0.4-0.4l0,0l5.6,0c0.2,0,0.4,0.2,0.4,0.4
	l0,0l0,8.6L105.7,82.1L105.7,82.1z M54.9,73.2C55,73.2,55,73.2,54.9,73.2L54.9,73.2l3.7,0c0.3,0,0.3,0.1,0.3,0.4l0,0v8.5h2.8l0-8.5
	c0-0.3,0.2-0.4,0.4-0.4l0,0l3.3,0c0.1,0,0.2,0,0.3,0l0,0l0-2.2l-10.9,0V73.2L54.9,73.2z M89.1,63.9v-0.3v-1.4c0-0.2,0.2-0.3,0.4-0.3
	l0,0l2.1,0h2.2c0.2,0,0.4,0.2,0.4,0.3l0,0v1.4v0.3h-2.5L89.1,63.9L89.1,63.9z M96.7,69.6v-8.1c0-0.6-0.5-1-1.1-1l0,0l-3.5,0l-3.6,0
	c-0.6,0-1.1,0.5-1.1,1l0,8.1h2.2v-3.9H92l2.6,0l0,3.9H96.7L96.7,69.6z M56.3,69.6H63c0.8,0,1.4-0.5,1.4-1.2l0,0v-2.2h-2v1.3
	c0,0.2-0.2,0.3-0.4,0.3l0,0h-4.7c-0.2,0-0.4-0.2-0.4-0.3l0,0v-4.8c0-0.2,0.2-0.3,0.4-0.3l0,0l4.7,0c0.2,0,0.4,0.2,0.4,0.3l0,0v1.2
	l2,0v-2.2c0-0.7-0.6-1.2-1.4-1.2l0,0h-6.7c-0.8,0-1.4,0.5-1.4,1.2l0,0l0,6.7C54.9,69.1,55.5,69.6,56.3,69.6L56.3,69.6z M67.8,63.9
	v-1.7c0-0.2,0.2-0.3,0.4-0.3l0,0h2.2l2.1,0c0.2,0,0.3,0.2,0.3,0.3l0,0v1.7h-2.5L67.8,63.9L67.8,63.9z M70.5,60.5h-3.6h0h0
	c-0.6,0-1.1,0.5-1.1,1v8.1l2.2,0v-3.9h2.6h2.5v3.9l2.1,0v-8.1c0-0.6-0.5-1-1.1-1l0,0L70.5,60.5L70.5,60.5z M85.9,60.5h-2.1v7
	c0,0.2-0.2,0.3-0.4,0.3l0,0l-4.7,0c-0.2,0-0.4-0.2-0.4-0.3l0,0v-1.3h-2v2.3c0,0.7,0.6,1.2,1.4,1.2l0,0l6.7,0c0.8,0,1.4-0.5,1.4-1.2
	l0,0V60.5L85.9,60.5z M44.4,70.9v-2.2c-0.1-1.2-1.1-2.3-2.2-2.4H21.9c-1,0-2.1,1.2-2.1,2.6v2h22.1H44.4L44.4,70.9z M31,86h18.2
	c1.6-0.2,2.6-0.9,3.1-2.1H27.5l0,0H15.2C13.5,84,12.5,84.8,12,86H31L31,86z M37.3,54.1c0,2.8-2.3,5.1-5.1,5.1s-5.1-2.3-5.1-5.1
	s2.3-5.1,5.1-5.1S37.3,51.3,37.3,54.1z"/>
</svg>
