<?xml version="1.0" encoding="utf-8"?>
<!-- Generator: Adobe Illustrator 27.1.0, SVG Export Plug-In . SVG Version: 6.00 Build 0)  -->
<svg version="1.1" id="Layer_1" xmlns="http://www.w3.org/2000/svg" xmlns:xlink="http://www.w3.org/1999/xlink" x="0px" y="0px"
	 viewBox="0 0 250 135" style="enable-background:new 0 0 250 135;" xml:space="preserve">
<style type="text/css">
	.st0{fill-rule:evenodd;clip-rule:evenodd;fill:#DC000A;}
</style>
<path class="st0" d="M23.3,53.2H90c4.4,0,8,4,8,8.8v26.6c0,4.8-3.6,8.8-8,8.8H74.9c3.1,0,7.4-0.2,7-7.3v-2.8H31.5v2.8
	c0,3.3,0.3,7.3,7.1,7.3H23.3c-4.4,0-8-4-8-8.8V62C15.4,57.2,19,53.2,23.3,53.2L23.3,53.2z M215.8,79.9c0-0.4,0.4-0.8,1-0.8l0,0
	l5.8,0h5.7c0.5,0,0.9,0.4,0.9,0.8l0,0v3.4l-6.6,0h-6.7V79.9L215.8,79.9z M229.2,97.4h5.4l0-20.3c0-1.4-1.4-2.5-3-2.5l0,0h-9.1
	l-9.5,0c-1.7,0-3,1.1-3,2.5l0,20.3h5.7l0-9.7l6.8,0l6.6,0L229.2,97.4L229.2,97.4z M133.7,83.2v-3.4c0-0.4,0.4-0.8,1-0.8l0,0h5.8h5.7
	c0.5,0,0.9,0.4,0.9,0.8l0,0v3.4h-6.6L133.7,83.2L133.7,83.2z M140.9,74.6h-9.5c-1.7,0-3,1.1-3,2.5l0,0l0,20.3h5.7l0-9.7h6.8l6.6,0
	l0,9.7h5.4l0-20.3c0-1.4-1.4-2.5-3-2.5l0,0H140.9L140.9,74.6z M155.7,77.6l0,16.7c0,1.7,1.6,3,3.5,3l0,0l17.5,0c2,0,3.6-1.3,3.6-3
	l0,0v-5.6l-5.3,0V92c0,0.4-0.4,0.8-0.9,0.8l0,0h-12.2c-0.5,0-0.9-0.4-0.9-0.8l0,0l0-12c0-0.5,0.5-0.9,0.9-0.9l0,0l12.2,0
	c0.5,0,0.9,0.4,0.9,0.9l0,0v3.1h5.3l0-5.5c0-1.7-1.6-3-3.6-3l0,0h-17.5C157.2,74.6,155.7,75.9,155.7,77.6L155.7,77.6L155.7,77.6z
	 M207.4,97.5V77.2c0-1.4-1.3-2.6-3-2.6l0,0l-21.5,0v2.6l0,20.3h5.7l0-17.5c0-0.4,0.4-0.8,0.9-0.8l0,0l11.5,0c0.5,0,0.9,0.3,0.9,0.8
	l0,0l0,17.5L207.4,97.5L207.4,97.5z M103.4,79.1c0,0,0.1,0,0.1,0l0,0h7.6c0.6,0,0.7,0.3,0.7,0.9l0,0v17.4h5.8l0-17.4
	c0-0.5,0.5-0.9,0.9-0.9l0,0l6.7,0c0.2,0,0.3,0,0.6,0l0,0l0-4.5l-22.4,0V79.1L103.4,79.1z M173.5,60.1v-0.7v-2.8
	c0-0.3,0.4-0.6,0.7-0.6l0,0l4.4,0h4.4c0.4,0,0.7,0.3,0.7,0.6l0,0v2.8v0.6h-5.2L173.5,60.1L173.5,60.1z M188.8,71.9V55.3
	c0-1.1-1.1-2-2.4-2l0,0l-7.2,0l-7.4,0c-1.3,0-2.3,0.9-2.3,2.1l0,16.6h4.4V64h5.3l5.3,0l0,7.9H188.8L188.8,71.9z M106.1,71.9H120
	c1.6,0,2.8-1.1,2.8-2.5l0,0v-4.6h-4.2v2.7c0,0.4-0.4,0.7-0.7,0.7l0,0h-9.6c-0.4,0-0.7-0.3-0.7-0.7l0,0v-9.8c0-0.4,0.4-0.7,0.7-0.7
	l0,0l9.6,0c0.4,0,0.7,0.3,0.7,0.7l0,0v2.6l4.2,0v-4.5c0-1.4-1.2-2.5-2.8-2.5l0,0h-13.8c-1.6,0-2.8,1.1-2.8,2.5l0,0l0,13.7
	C103.4,70.8,104.6,71.9,106.1,71.9L106.1,71.9z M129.7,60.1v-3.5c0-0.4,0.3-0.6,0.7-0.6l0,0h4.5l4.4,0c0.4,0,0.7,0.3,0.7,0.6l0,0
	v3.5h-5.1L129.7,60.1L129.7,60.1z M135.3,53.2h-7.5h0h0c-1.3,0-2.3,0.9-2.3,2.1v16.6l4.5,0v-7.9h5.3h5.2v7.9l4.3,0V55.3
	c0-1.1-1.1-2.1-2.4-2.1l0,0L135.3,53.2L135.3,53.2z M166.9,53.2h-4.2v14.3c0,0.4-0.3,0.7-0.7,0.7l0,0l-9.6,0c-0.4,0-0.7-0.3-0.7-0.7
	l0,0v-2.7h-4.2v4.6c0,1.4,1.2,2.5,2.8,2.5l0,0l13.8,0c1.5,0,2.8-1.1,2.8-2.5l0,0V53.2L166.9,53.2z M81.7,74.5V70
	c-0.2-2.5-2.3-4.7-4.6-4.8H35.7c-2.1-0.1-4.2,2.5-4.2,5.3v4h45.2H81.7L81.7,74.5z M54.3,105.3h37.3c3.3-0.4,5.4-1.9,6.4-4.4h-51l0,0
	H21.9c-3.3,0.4-5.4,1.9-6.4,4.4H54.3L54.3,105.3z M67.2,40.1c0,5.8-4.7,10.4-10.4,10.4s-10.4-4.7-10.4-10.4s4.7-10.4,10.4-10.4
	S67.2,34.3,67.2,40.1z"/>
</svg>
