<svg id="Capa_1" xmlns="http://www.w3.org/2000/svg" version="1.1" viewBox="0 0 400 400">
  <path class="st0" d="M292.91,121.19v2.32c0,18.71-5.87,37.22-17,53.53-4.07,5.98-19.25,21-31.45,33.08l-.22.21c-21.47,21.24-26.62,26.64-27.92,30.98-1.82,6.15-1.52,12.65-1.26,18.38.23,5.23.32,35.17-.15,38.32-1.1,7.18-7.42,12.6-14.69,12.6-4.93,0-9.5-2.41-12.25-6.45-.61-.97-1.18-2.07-1.69-3.27l-.12-.31c-3.19-7.82-3.15-44.95-1.78-58.5,1.98-19.67,18.55-35.14,36.14-51.56,24.67-23.01,52.63-49.08,36.13-90.39-10.59-26.46-36.1-41.01-65-37.06-23.76,3.25-49.31,20.9-52.82,53-.72,6.59.21,11.99.95,16.33.45,2.59.91,5.27.86,7.78-.22,9.1-8.02,14.86-15.42,15.17-9.52.38-16.13-7.83-17.64-21.95-4.83-45.1,26.77-89.84,70.45-99.74,38.87-8.81,76.68,5.78,98.67,38.08,10.18,14.95,15.76,32,16.21,49.45Z"/>
  <path class="st0" d="M216.16,352.93v.73c-.03.58-.08,1.14-.17,1.68-1.18,7.72-7.96,13.53-15.79,13.53-5.3,0-10.25-2.63-13.25-7.07-.68-1-1.24-2.09-1.66-3.24l-.14-.32c-.6-1.71-.91-3.5-.91-5.31,0-8.8,7.16-15.96,15.96-15.96s15.96,7.16,15.96,15.96Z"/>
</svg>