<svg id="Capa_1" xmlns="http://www.w3.org/2000/svg" version="1.1" viewBox="0 0 400 400">
  <path class="st0" d="M307.33,388.17h-14.81l-21.06-3.5c-82.44-22.45-154.97-80.27-204.12-149.08-22.46-31.45-47.18-76.97-52.95-115.47-.78-5.22-.54-10.66-1.77-15.77.08-1.8-.11-3.66,0-5.46,1.51-24.67,9.43-35.32,25.71-52.65C59.91,23.24,84.27-4.03,115.94,23.23c11.65,10.03,49.09,46.32,55.86,57.98,10.7,18.44,4.64,34.17-8.31,48.88-7.79,8.84-17.58,17.14-26.02,25.43,9.63,21.16,24.44,40.07,40.42,56.84,18.81,19.75,41.5,38.11,66.05,50.15,20.78-16.14,35.02-46.75,66.48-37.66,6.29,1.82,11.58,5.87,16.42,10.09,14.35,12.51,34.07,32.48,46.79,46.77,11.18,12.56,17.47,25.7,11.5,42.73-4.19,11.95-28.06,35.02-38.01,44.64-10.57,10.22-24.92,17.71-39.78,19.08h-.01ZM85.69,35.13c-1.79.37-6.03,2.88-7.6,4.09-7.64,5.88-35.38,34.36-38.79,42.3-13.14,30.51,12.77,85.97,28.54,113.02,33.94,58.23,86.34,109.87,145.41,142.3,25.74,14.13,77.07,37.8,105.54,24.97,8.12-3.66,32.69-28.59,39.24-36.39,9.44-11.23,8.48-17.34-.78-28.11-11.08-12.89-32.69-34.76-45.61-45.61-4.95-4.16-8.62-6.5-15.57-5.39-8.23,1.31-30.54,29.19-39.05,35.8-7,5.43-12.27,5.86-20.39,2.5-40.73-16.88-97.12-73.09-116.84-112.38-4.32-8.61-9.29-19.13-3.03-28.06s20.52-18.83,28.43-27.71c8.92-10.02,13.89-15.89,3.9-28.11-13.88-16.97-34.62-32.22-49.13-49.11-4.02-3.34-9.01-5.2-14.26-4.1h-.01Z"/>
</svg>