<?xml version="1.0" encoding="utf-8"?>
<!-- Generator: Adobe Illustrator 27.1.0, SVG Export Plug-In . SVG Version: 6.00 Build 0)  -->
<svg version="1.1" id="Layer_1" xmlns="http://www.w3.org/2000/svg" xmlns:xlink="http://www.w3.org/1999/xlink" x="0px" y="0px"
	 viewBox="0 0 200 200" style="enable-background:new 0 0 200 200;" xml:space="preserve">
<style type="text/css">
	.st0{fill:#E10600;}
</style>
<g>
	<path class="st0" d="M11.86,127.06V56.13c0-5.43,4.42-9.84,9.84-9.84h139.03c5.43,0,9.84,4.41,9.84,9.84v32.74h11.36V56.13
		c0-11.69-9.51-21.2-21.2-21.2H21.7c-11.69,0-21.2,9.51-21.2,21.2v70.94c0,11.69,9.51,21.2,21.2,21.2h99.14v-11.36H21.7
		C16.27,136.91,11.86,132.49,11.86,127.06z"/>
	<rect x="26.89" y="60.76" class="st0" width="34.34" height="23.98"/>
	<rect x="26.89" y="93.74" class="st0" width="100.22" height="10.72"/>
	<rect x="26.89" y="113.14" class="st0" width="94.5" height="10.72"/>
	<path class="st0" d="M163.48,93.03c-19.86,0-36.02,16.16-36.02,36.02c0,19.86,16.16,36.02,36.02,36.02s36.02-16.16,36.02-36.02
		C199.5,109.19,183.34,93.03,163.48,93.03z M163.48,155.99c-14.85,0-26.94-12.08-26.94-26.94c0-14.86,12.08-26.94,26.94-26.94
		c14.85,0,26.94,12.08,26.94,26.94C190.42,143.91,178.33,155.99,163.48,155.99z"/>
	<path class="st0" d="M178.12,114.62c-1.77-1.77-4.65-1.77-6.42,0l-8.11,8.11l-8.11-8.11c-1.77-1.77-4.65-1.77-6.42,0
		c-1.77,1.77-1.77,4.65,0,6.42l8.11,8.11l-8.11,8.11c-1.77,1.77-1.77,4.65,0,6.42c0.89,0.89,2.05,1.33,3.21,1.33
		c1.16,0,2.32-0.44,3.21-1.33l8.11-8.11l8.11,8.11c0.89,0.89,2.05,1.33,3.21,1.33c1.16,0,2.32-0.44,3.21-1.33
		c1.77-1.77,1.77-4.65,0-6.42l-8.11-8.11l8.11-8.11C179.89,119.27,179.89,116.39,178.12,114.62z"/>
</g>
</svg>
