<?xml version="1.0" encoding="utf-8"?>
<!-- Generator: Adobe Illustrator 27.1.0, SVG Export Plug-In . SVG Version: 6.00 Build 0)  -->
<svg version="1.1" id="Layer_1" xmlns="http://www.w3.org/2000/svg" xmlns:xlink="http://www.w3.org/1999/xlink" x="0px" y="0px"
	 viewBox="0 0 200 200" style="enable-background:new 0 0 200 200;" xml:space="preserve">
<style type="text/css">
	.st0{fill:#E10600;}
</style>
<g>
	<g>
		<g>
			<path class="st0" d="M175.6,107.2c-4.6,0-8.9-2-11.4-5c-1.6-1.9-1.4-4.7,0.6-6.3c1.9-1.6,4.7-1.4,6.3,0.6
				c1.2,1.5,5.1,2.9,8.4,0.6c2.7-1.9,4-6.6,0.8-11.6c-1.3-2.1-0.7-4.9,1.4-6.2c2.1-1.3,4.9-0.7,6.2,1.4c5.4,8.5,4,18.8-3.3,23.8
				C181.7,106.3,178.6,107.2,175.6,107.2z"/>
		</g>
		<g>
			<path class="st0" d="M171.9,106.8c0.1-1.3,0.2-2.7,0.2-4c0-1.9-0.1-3.9-0.3-5.7c-2.6-22.3-20.4-41.1-44.8-49.6
				c-0.1,3.1-0.7,6.1-1.7,8.9c22.4,8.2,37.9,26,37.9,46.5c0,12-5.4,23.6-15.3,32.8l-6.1,6.6l8.6,14.7l-12.4,7.3l-9.4-15.4l-11.6,2.9
				c-6.4,1.6-13,2.3-19.7,2.3c-9.5,0-19-3.1-19-3.2l-4-1.3l-7,16.6l-13.4-5.3l6.5-16.5l-9.1-4.8c-7.1-5.4-12.7-12.2-16.1-19.6
				l-1.2-2.6H18.2c-0.2,0-0.4-0.2-0.4-0.4V95c0-0.2,0.2-0.4,0.4-0.4H32l1-3.2c2.3-7.9,7-15.3,13.7-21.5l1.5-1.4l-0.6-18.1
				c0-0.1,0-0.3,0.2-0.5c0.2-0.2,0.5-0.1,0.5,0l16.7,8.1l1.8-0.8c1.4-0.6,2.8-1.1,4.3-1.6c-1-2.8-1.5-5.8-1.5-9
				c-1.4,0.5-2.9,1-4.3,1.5l-13.1-6.3c-3-1.5-6.5-1.2-9.3,0.6c-2.8,1.8-4.4,4.9-4.3,8.3l0.5,14C32.8,70.8,28.1,78,25.3,85.6h-7.1
				c-5.2,0-9.4,4.2-9.4,9.4v21.8c0,5.2,4.2,9.4,9.4,9.4h10c4.1,7.8,10.3,15,17.9,20.7l0.3,0.2l2.6,1.4l-4.3,10.9
				c-1.4,3.6,0.3,7.6,3.9,9l17.1,6.8c0.8,0.3,1.7,0.5,2.5,0.5c2.7,0,5.3-1.6,6.4-4.3l4.6-10.9c4.1,1.1,10.9,2.5,17.9,2.5
				c7.5,0,14.8-0.9,21.9-2.6l5.2-1.3l7,11.4c2,3.2,6.2,4.3,9.5,2.3l15.9-9.4c3.3-1.9,4.4-6.2,2.5-9.5l-6.3-10.7l1.2-1.3
				C164.6,132.1,170.9,119.7,171.9,106.8z"/>
		</g>
	</g>
	<g>
		<path class="st0" d="M98.3,24.2c-12.2,0-22.2,9.9-22.2,22.2c0,8.2,4.5,15.4,11.2,19.2c3.4-1,7.1-1.6,11-1.6c3.9,0,7.6,0.5,11,1.6
			c6.7-3.8,11.2-11,11.2-19.2C120.4,34.2,110.5,24.2,98.3,24.2z M98.3,59.5c-7.3,0-13.2-5.9-13.2-13.2c0-7.3,5.9-13.2,13.2-13.2
			s13.2,5.9,13.2,13.2C111.4,53.6,105.5,59.5,98.3,59.5z"/>
	</g>
	<g>
		<path class="st0" d="M118.5,75.1c-1.4,0-2.7-0.6-3.7-1.7c-3.3-3.8-9.6-6.1-16.6-6.1s-13.3,2.3-16.6,6.1c-1.8,2-4.8,2.2-6.8,0.5
			c-2-1.8-2.2-4.8-0.5-6.8c5.1-5.9,14.1-9.4,23.9-9.4s18.8,3.5,23.9,9.4c1.8,2,1.6,5.1-0.5,6.8C120.8,74.7,119.6,75.1,118.5,75.1z"
			/>
	</g>
</g>
</svg>
