<?xml version="1.0" encoding="utf-8"?>
<!-- Generator: Adobe Illustrator 27.1.0, SVG Export Plug-In . SVG Version: 6.00 Build 0)  -->
<svg version="1.1" id="Layer_1" xmlns="http://www.w3.org/2000/svg" xmlns:xlink="http://www.w3.org/1999/xlink" x="0px" y="0px"
	 viewBox="0 0 200 200" style="enable-background:new 0 0 200 200;" xml:space="preserve">
<style type="text/css">
	.st0{fill:#E10600;}
</style>
<g>
	<g>
		<path class="st0" d="M166.2,155.6H33.8c-12.7,0-23.1-10.4-23.1-23.1v-65c0-12.7,10.4-23.1,23.1-23.1h132.5
			c12.7,0,23.1,10.4,23.1,23.1v65C189.3,145.2,179,155.6,166.2,155.6z M33.8,54.4c-7.2,0-13.1,5.9-13.1,13.1v65
			c0,7.2,5.9,13.1,13.1,13.1h132.5c7.2,0,13.1-5.9,13.1-13.1v-65c0-7.2-5.9-13.1-13.1-13.1H33.8z"/>
	</g>
	<g>
		<rect x="36.2" y="69.4" class="st0" width="34.1" height="23.8"/>
	</g>
	<g>
		<rect x="36.2" y="102.1" class="st0" width="125.1" height="10.6"/>
	</g>
	<g>
		<rect x="36.2" y="121.4" class="st0" width="125.1" height="10.6"/>
	</g>
</g>
</svg>
