<?xml version="1.0" encoding="utf-8"?>
<!-- Generator: Adobe Illustrator 27.1.0, SVG Export Plug-In . SVG Version: 6.00 Build 0)  -->
<svg version="1.1" id="Layer_1" xmlns="http://www.w3.org/2000/svg" xmlns:xlink="http://www.w3.org/1999/xlink" x="0px" y="0px"
	 viewBox="0 0 200 200" style="enable-background:new 0 0 200 200;" xml:space="preserve">
<style type="text/css">
	.st0{fill:#E10600;}
</style>
<g>
	<g>
		<path class="st0" d="M184.5,71.6c-1.1-1.1-2.7-1.5-5-1.4c-2.7,0.1-5.4,0.1-8.4,0.1c-0.5,0-1,0-1.5,0l6.1-6.1
			c4.5-4.5,4.5-6.1,0-10.6c-16.5-16.5-33-33.1-49.5-49.6c-3.9-3.9-5.7-3.9-9.7,0l-11.3,11.3C95.9,24.5,86.6,33.8,77.2,43
			c-1.1,1.1-3.1,1.9-4.7,1.9C63.7,45.1,54.7,45.1,46,45l-8.2,0c0,0,0,0,0,0c-15.4,0-23.9,8.5-23.9,23.8c0,29.1,0,58.2,0,87.2v18.4
			c0,1.5,0,2.9,0.1,4.4c0.9,11.8,9.7,20.1,21.4,20.1c20.7,0,41.9,0.1,63.4,0.1s43.6,0,65.8-0.1c12.2,0,21.4-9.2,21.4-21.4
			c0-15.3,0-30.6,0-45.8c0-18.4,0-36.8,0.1-55.2C186.1,74.2,185.6,72.6,184.5,71.6z M134.4,189.9l-96.9,0c-5,0-8.5-1.1-10.9-3.5
			c-2.4-2.3-3.5-5.8-3.5-10.7l0-107.1c0-10,4.5-14.4,14.6-14.4l20.2,0h8l-2.4,2.4c-4.5,4.5-8.7,8.8-13,12.9
			c-0.4,0.3-1.3,0.6-2.9,0.6c-2.6,0.1-5.2,0.1-7.8,0.1c-1.3,0-2.6,0-3.9,0c-2,0-3.5,0.6-4.4,1.7c-0.5,0.6-1,1.6-0.7,3.2
			c0.4,1.9,2.6,3.1,4.5,4c0.9,0.5,1.9,0.4,2.8,0.3c0.3,0,0.6-0.1,0.9-0.1h137.7v29.3c-2.1,0-4.3,0-6.4-0.1c-5.9-0.1-12-0.2-17.9,0.2
			c-5.3,0.4-10.4,1.8-14.2,3.9c-9.6,5.4-14.2,16.9-11.1,28.2c2.9,10.8,12.8,18.4,24,18.5c6.1,0.1,12.2,0.1,18.3,0l7.1,0
			c0,1.9,0.1,3.9,0.1,5.8c0.1,5.3,0.2,10.2-0.3,15.2c-0.5,5.6-5.6,9.6-12.3,9.6C154.3,190,144.3,189.9,134.4,189.9z M148.1,149.7
			c-7.5-0.8-13.3-8.2-12.8-16.6c0.4-8.1,6.6-14.6,14.4-15.1c3.6-0.2,7.3-0.3,10.9-0.3c2.8,0,5.7,0,8.6,0.1c2.5,0,5.1,0.1,7.7,0.1v32
			c-2.7,0-5.4,0.1-8,0.1C161.7,150.2,154.9,150.4,148.1,149.7z M99.4,60.8c7.3-0.4,12.9,2.6,17,9h-32C88.1,64,92.9,61.2,99.4,60.8z
			 M149,70.1l-3.4,0c-6.4,0-12.5,0-18.5-0.1c-0.2-0.1-0.7-0.7-1.1-1.5c-5.3-11.1-13.8-16.7-25.5-16.8c-0.1,0-0.1,0-0.2,0
			c-11.4,0-20,5.5-25.5,16.5C74.4,69,73,69.9,72,70c-2.5,0.2-5.1,0.2-7.8,0.1c-0.1,0-0.2,0-0.3,0l41.5-41.8
			c10.5,6.6,21.2,6.7,31.7,0.1l14.5,14.3C146.1,51.3,145.2,60.3,149,70.1z M158.3,49.6l9.3,9.3l-9.4,9c-1.2-1.4-2.1-4-2.3-6.9
			C155.5,56.6,156.4,52.3,158.3,49.6z M112.3,21.6l8.9-9l8.9,9.2C125.1,25.2,117.8,25.1,112.3,21.6z"/>
	</g>
	<g>
		<circle class="st0" cx="153.3" cy="134" r="8"/>
	</g>
</g>
</svg>
