<?xml version="1.0" encoding="utf-8"?>
<!-- Generator: Adobe Illustrator 27.1.0, SVG Export Plug-In . SVG Version: 6.00 Build 0)  -->
<svg version="1.1" id="Layer_1" xmlns="http://www.w3.org/2000/svg" xmlns:xlink="http://www.w3.org/1999/xlink" x="0px" y="0px"
	 viewBox="0 0 200 200" style="enable-background:new 0 0 200 200;" xml:space="preserve">
<style type="text/css">
	.st0{fill:#E10600;}
</style>
<g>
	<path class="st0" d="M46.2,136.05V63.95c0-29.67,24.14-53.8,53.8-53.8c17.58,0,34.09,8.62,44.17,23.07
		c1.52,2.19,4.54,2.73,6.72,1.2c2.19-1.52,2.72-4.53,1.2-6.72C140.21,10.67,120.74,0.5,100,0.5c-34.99,0-63.45,28.46-63.45,63.45
		v72.09c0,9.25,1.95,18.17,5.79,26.51c0.81,1.77,2.56,2.81,4.38,2.81c0.68,0,1.36-0.14,2.01-0.45c2.42-1.11,3.48-3.98,2.37-6.4
		C47.84,151.45,46.2,143.89,46.2,136.05z"/>
	<path class="st0" d="M158.63,59.13c-2.66,0-4.83,2.16-4.83,4.83v72.09c0,29.67-24.14,53.8-53.81,53.8c-2.66,0-4.83,2.16-4.83,4.83
		c0,2.66,2.16,4.83,4.83,4.83c34.99,0,63.46-28.46,63.46-63.45V63.95C163.46,61.29,161.29,59.13,158.63,59.13z"/>
	<path class="st0" d="M140.06,119.98c2.66,0,4.83-2.16,4.83-4.83V69.94c0-24.43-19.87-44.3-44.3-44.3c-5.17,0-10.25,0.89-15.08,2.63
		c-2.51,0.91-3.81,3.67-2.9,6.18c0.91,2.51,3.67,3.8,6.18,2.9c3.78-1.37,7.75-2.06,11.8-2.06c19.11,0,34.65,15.55,34.65,34.65v45.21
		C135.23,117.82,137.39,119.98,140.06,119.98z"/>
	<path class="st0" d="M137.42,154.67c1.48-2.21,0.89-5.21-1.33-6.69c-2.22-1.48-5.21-0.89-6.69,1.33
		c-6.46,9.65-17.23,15.41-28.82,15.41c-19.11,0-34.65-15.55-34.65-34.65V69.94c0-3.9,0.64-7.73,1.91-11.37
		c0.87-2.52-0.46-5.27-2.98-6.14c-2.52-0.88-5.27,0.46-6.14,2.98c-1.62,4.67-2.44,9.56-2.44,14.54v60.11
		c0,24.43,19.87,44.3,44.3,44.3C115.4,174.36,129.17,167,137.42,154.67z"/>
	<path class="st0" d="M117.26,61.92c1.74-2.02,1.52-5.06-0.5-6.81c-4.49-3.88-10.24-6.02-16.18-6.02
		c-13.65,0-24.76,11.11-24.76,24.76v41.3c0,2.66,2.16,4.83,4.83,4.83s4.83-2.16,4.83-4.83v-41.3c0-8.33,6.78-15.11,15.11-15.11
		c3.63,0,7.13,1.3,9.87,3.67C112.47,64.16,115.52,63.93,117.26,61.92z"/>
	<path class="st0" d="M100.58,150.91c13.65,0,24.76-11.11,24.76-24.76v-9.55c0-2.66-2.16-4.83-4.83-4.83
		c-2.66,0-4.83,2.16-4.83,4.83v9.55c0,8.33-6.78,15.11-15.11,15.11c-3.78,0-7.4-1.4-10.19-3.95c-1.97-1.8-5.03-1.66-6.82,0.3
		c-1.8,1.97-1.66,5.02,0.3,6.82C88.45,148.61,94.38,150.91,100.58,150.91z"/>
	<path class="st0" d="M125.34,73.85c0-2.66-2.16-4.83-4.83-4.83c-2.66,0-4.83,2.16-4.83,4.83V100c0,2.66,2.16,4.83,4.83,4.83
		c2.66,0,4.83-2.16,4.83-4.83V73.85z"/>
	<path class="st0" d="M95.17,73.85v52.01c0,2.66,2.16,4.83,4.83,4.83c2.66,0,4.83-2.16,4.83-4.83V73.85c0-2.66-2.16-4.83-4.83-4.83
		C97.33,69.03,95.17,71.19,95.17,73.85z"/>
</g>
</svg>
