<?xml version="1.0" encoding="utf-8"?>
<!-- Generator: Adobe Illustrator 27.1.0, SVG Export Plug-In . SVG Version: 6.00 Build 0)  -->
<svg version="1.1" id="Layer_1" xmlns="http://www.w3.org/2000/svg" xmlns:xlink="http://www.w3.org/1999/xlink" x="0px" y="0px"
	 viewBox="0 0 200 200" style="enable-background:new 0 0 200 200;" xml:space="preserve">
<style type="text/css">
	.st0{fill:#E10600;}
</style>
<g>
	<path class="st0" d="M148.82,97.6c-18.93,0-34.32,15.4-34.32,34.32c0,18.92,15.4,34.32,34.32,34.32s34.32-15.4,34.32-34.32
		C183.15,113,167.75,97.6,148.82,97.6z M148.82,155.9c-13.22,0-23.98-10.75-23.98-23.97c0-13.22,10.76-23.98,23.98-23.98
		s23.98,10.75,23.98,23.98C172.8,145.15,162.04,155.9,148.82,155.9z"/>
	<path class="st0" d="M163.06,117.88c-2.02-2.02-5.29-2.02-7.31,0l-6.83,6.83l-6.83-6.83c-2.02-2.02-5.29-2.02-7.31,0
		s-2.02,5.29,0,7.31l6.83,6.83l-6.83,6.83c-2.02,2.02-2.02,5.29,0,7.31c1.01,1.01,2.33,1.52,3.66,1.52c1.32,0,2.65-0.51,3.66-1.52
		l6.83-6.83l6.83,6.83c1.01,1.01,2.33,1.52,3.66,1.52c1.32,0,2.65-0.51,3.66-1.52c2.02-2.02,2.02-5.29,0-7.31l-6.83-6.83l6.83-6.83
		C165.08,123.17,165.08,119.9,163.06,117.88z"/>
	<path class="st0" d="M195.87,69.65c-1.53-2.41-4.73-3.12-7.14-1.59c-2.41,1.53-3.12,4.73-1.59,7.14c3.36,5.28,2.1,10.24-0.78,12.23
		c-2.95,2.04-6.27,1.31-8,0.12c-4.02-33.35-39-59.52-81.43-59.52c-12.16,0-23.81,2.08-34.68,6.18l-14.18-6.84
		c-3.39-1.63-7.29-1.39-10.45,0.67c-3.15,2.05-4.96,5.52-4.84,9.28l0.51,15.15c-6.64,6.62-11.66,14.33-14.71,22.58h-7.55
		c-5.8,0-10.52,4.72-10.52,10.53v23.74c0,5.8,4.72,10.53,10.52,10.53h10.68c4.51,8.53,11.19,16.24,19.5,22.45l2.96,1.64l-4.6,11.63
		c-0.77,1.94-0.73,4.08,0.1,6c0.83,1.92,2.36,3.41,4.3,4.18l18.66,7.42c0.93,0.37,1.9,0.55,2.85,0.55c3.08,0,6.02-1.82,7.27-4.8
		l4.87-11.62c4.53,1.15,11.79,2.63,19.3,2.63c3.93,0,7.9-0.23,11.79-0.68c2.84-0.33,4.87-2.89,4.54-5.73
		c-0.33-2.84-2.91-4.88-5.73-4.54c-3.5,0.4-7.06,0.61-10.6,0.61c-10.3,0-20.54-3.38-20.65-3.42l-4.56-1.52l-7.56,18.02l-14.05-5.59
		l7.09-17.92l-10.1-5.35c-7.74-5.87-13.78-13.21-17.46-21.26l-1.38-3.02l-17.39-0.18l0.18-23.92h15.16l1.09-3.72
		c2.5-8.57,7.61-16.62,14.78-23.29l1.73-1.61l-0.66-19.81l0.45-0.29l18.28,8.82l2.13-0.86c10.1-4.1,21.49-6.26,32.95-6.26
		c39.42,0,71.49,24.94,71.49,55.59c0,2.86,2.32,5.17,5.17,5.17c1.16,0,2.18-0.45,3.04-1.1c1.78,0.6,3.67,1.02,5.66,1.02
		c3.31,0,6.78-0.93,9.94-3.12C200.29,90.39,201.86,79.08,195.87,69.65z"/>
</g>
</svg>
