<?xml version="1.0" encoding="utf-8"?>
<!-- Generator: Adobe Illustrator 27.1.0, SVG Export Plug-In . SVG Version: 6.00 Build 0)  -->
<svg version="1.1" id="Layer_1" xmlns="http://www.w3.org/2000/svg" xmlns:xlink="http://www.w3.org/1999/xlink" x="0px" y="0px"
	 viewBox="0 0 200 200" style="enable-background:new 0 0 200 200;" xml:space="preserve">
<style type="text/css">
	.st0{fill:#E10600;}
</style>
<g>
	<path class="st0" d="M178.5,40.65c-30.4-10.82-74.97-37.99-75.41-38.27L100,0.5l-3.08,1.88C96.47,2.66,51.9,29.82,21.5,40.65
		l-3.92,1.4v4.16c0,109.67,76.47,150.23,79.72,151.91l2.7,1.38l2.7-1.38c3.25-1.67,79.72-42.23,79.72-151.91v-4.16L178.5,40.65z
		 M100,186.08c-13.24-7.93-68.91-46.53-70.58-135.78C56.08,40.09,89.7,20.47,100,14.31c10.3,6.15,43.92,25.77,70.57,35.99
		C168.91,139.55,113.25,178.16,100,186.08z"/>
	<path class="st0" d="M69.94,93.57c-2.31-2.31-6.04-2.31-8.35,0c-2.31,2.31-2.31,6.04,0,8.35l30.48,30.48l59.43-59.43
		c2.31-2.31,2.31-6.04,0-8.35s-6.04-2.31-8.35,0L92.07,115.7L69.94,93.57z"/>
</g>
</svg>
