<?xml version="1.0" encoding="utf-8"?>
<!-- Generator: Adobe Illustrator 27.1.0, SVG Export Plug-In . SVG Version: 6.00 Build 0)  -->
<svg version="1.1" xmlns="http://www.w3.org/2000/svg" xmlns:xlink="http://www.w3.org/1999/xlink" x="0px" y="0px"
	 viewBox="0 0 200 200" style="enable-background:new 0 0 200 200;" xml:space="preserve">
<style type="text/css">
	.st0{fill:#E10600;}
</style>
<g id="botones">
</g>
<g id="iconos">
	<g>
		<path class="st0" d="M161.37,26.05c-6.21-5.02-15.31-4.07-20.34,2.13c-5.03,6.21-4.08,15.32,2.13,20.34
			c16.17,13.11,25.45,32.55,25.45,53.34c0,37.83-30.78,68.61-68.61,68.61s-68.61-30.78-68.61-68.61c0-20.79,9.27-40.23,25.44-53.33
			c6.21-5.03,7.16-14.13,2.13-20.34c-5.03-6.2-14.14-7.16-20.34-2.13C15.65,44.67,2.47,72.3,2.47,101.86
			c0,53.78,43.75,97.53,97.53,97.53s97.53-43.75,97.53-97.53C197.53,72.3,184.35,44.67,161.37,26.05z"/>
		<path class="st0" d="M100,91.11c7.99,0,14.46-6.47,14.46-14.46V15.08c0-7.99-6.47-14.46-14.46-14.46S85.54,7.09,85.54,15.08v61.57
			C85.54,84.63,92.01,91.11,100,91.11z"/>
	</g>
</g>
</svg>
