<?xml version="1.0" encoding="utf-8"?>
<!-- Generator: Adobe Illustrator 27.1.0, SVG Export Plug-In . SVG Version: 6.00 Build 0)  -->
<svg version="1.1" id="Layer_1" xmlns="http://www.w3.org/2000/svg" xmlns:xlink="http://www.w3.org/1999/xlink" x="0px" y="0px"
	 viewBox="0 0 200 200" style="enable-background:new 0 0 200 200;" xml:space="preserve">
<style type="text/css">
	.st0{fill:#E10600;}
</style>
<g>
	<path class="st0" d="M39.56,136.96h120.89c10.17,0,18.44-8.27,18.44-18.43V56.85c0-10.16-8.27-18.43-18.44-18.43H39.56
		c-10.16,0-18.43,8.27-18.43,18.43v61.68C21.12,128.69,29.39,136.96,39.56,136.96z M31,56.85c0-4.72,3.84-8.56,8.56-8.56h120.89
		c4.72,0,8.56,3.84,8.56,8.56v61.68c0,4.72-3.84,8.56-8.56,8.56H39.56c-4.72,0-8.56-3.84-8.56-8.56V56.85z"/>
	<path class="st0" d="M0.5,144.5c5.3,10.42,16.77,17.09,29.39,17.09h140.21c12.62,0,24.1-6.67,29.39-17.09H0.5z"/>
</g>
</svg>
