<?xml version="1.0" encoding="utf-8"?>
<!-- Generator: Adobe Illustrator 27.1.0, SVG Export Plug-In . SVG Version: 6.00 Build 0)  -->
<svg version="1.1" id="Layer_1" xmlns="http://www.w3.org/2000/svg" xmlns:xlink="http://www.w3.org/1999/xlink" x="0px" y="0px"
	 viewBox="0 0 200 200" style="enable-background:new 0 0 200 200;" xml:space="preserve">
<style type="text/css">
	.st0{fill:#E10600;}
</style>
<g>
	<path class="st0" d="M129.11,76.8H17.52C8.13,76.8,0.5,84.44,0.5,93.82v56.94c0,9.38,7.63,17.02,17.02,17.02h111.59
		c9.38,0,17.02-7.63,17.02-17.02V93.82C146.12,84.44,138.49,76.8,129.11,76.8z M137.01,150.75c0,4.36-3.54,7.9-7.9,7.9H17.52
		c-4.36,0-7.9-3.54-7.9-7.9V93.82c0-4.36,3.54-7.9,7.9-7.9h111.59c4.36,0,7.9,3.54,7.9,7.9V150.75z"/>
	<path class="st0" d="M182.48,32.23H70.9c-9.38,0-17.02,7.63-17.02,17.02v14.88h9.12V49.25c0-4.36,3.54-7.9,7.9-7.9h111.59
		c4.36,0,7.9,3.54,7.9,7.9v56.94c0,4.36-3.54,7.9-7.9,7.9h-22.54v9.12h22.54c9.38,0,17.02-7.63,17.02-17.02V49.25
		C199.5,39.86,191.87,32.23,182.48,32.23z"/>
	<rect x="21.68" y="97.54" class="st0" width="27.56" height="19.25"/>
	<rect x="21.68" y="124.01" class="st0" width="97.13" height="8.6"/>
	<rect x="21.68" y="139.58" class="st0" width="97.13" height="8.6"/>
</g>
</svg>
