<?xml version="1.0" standalone="no"?>
<!DOCTYPE svg PUBLIC "-//W3C//DTD SVG 20010904//EN"
 "http://www.w3.org/TR/2001/REC-SVG-20010904/DTD/svg10.dtd">
<svg version="1.0" xmlns="http://www.w3.org/2000/svg"
 width="370.000000pt" height="370.000000pt" viewBox="0 0 370.000000 370.000000"
 preserveAspectRatio="xMidYMid meet">

<g transform="translate(0.000000,370.000000) scale(0.100000,-0.100000)"
fill="#000000" stroke="none">
<path d="M1160 3675 c-202 -38 -388 -114 -548 -224 -472 -324 -702 -910 -572
-1464 129 -554 575 -972 1135 -1062 120 -20 337 -19 456 1 111 19 253 63 356
110 l74 34 31 -23 c25 -19 42 -22 117 -22 81 0 92 3 166 39 165 82 293 254
302 408 4 63 1 79 -20 122 l-26 48 40 91 c81 183 119 365 119 567 0 664 -446
1215 -1105 1366 -98 23 -423 28 -525 9z m469 -305 c393 -81 717 -389 829 -787
25 -91 27 -111 27 -283 0 -161 -3 -196 -23 -268 -56 -205 -144 -355 -296 -508
-188 -187 -393 -284 -665 -314 -348 -38 -726 120 -951 398 -84 104 -180 290
-210 407 -67 259 -43 515 70 752 110 232 277 402 505 514 227 112 462 141 714
89z"/>
<path d="M1195 3253 c-171 -36 -334 -123 -462 -246 -146 -140 -230 -282 -279
-472 -36 -141 -37 -327 0 -467 32 -126 48 -154 40 -73 -14 142 42 376 127 535
91 168 253 350 411 463 199 141 481 231 673 213 l60 -6 -54 20 c-138 50 -367
65 -516 33z"/>
<path d="M2728 1192 c-35 -76 -180 -213 -243 -230 -23 -7 1 -37 360 -462 423
-502 428 -506 520 -495 164 19 326 189 328 344 0 68 -16 101 -78 151 -23 19
-226 190 -449 380 -224 190 -410 346 -414 347 -4 1 -15 -14 -24 -35z"/>
</g>
</svg>
