<?xml version="1.0" encoding="utf-8"?>
<!-- Generator: Adobe Illustrator 27.1.0, SVG Export Plug-In . SVG Version: 6.00 Build 0)  -->
<svg version="1.1" id="Layer_1" xmlns="http://www.w3.org/2000/svg" xmlns:xlink="http://www.w3.org/1999/xlink" x="0px" y="0px"
	 viewBox="0 0 200 200" style="enable-background:new 0 0 200 200;" xml:space="preserve">
<style type="text/css">
	.st0{fill:#E10600;}
</style>
<g>
	<path class="st0" d="M137.81,111.7H62.19c-26.83,0-48.66,21.83-48.66,48.66v26.5c0,4.76,3.85,8.61,8.61,8.61s8.61-3.85,8.61-8.61
		v-26.5c0-17.34,14.1-31.44,31.44-31.44h75.62c17.34,0,31.44,14.1,31.44,31.44v30.53c0,4.76,3.85,8.61,8.61,8.61
		c4.76,0,8.61-3.85,8.61-8.61v-30.53C186.47,133.53,164.64,111.7,137.81,111.7z"/>
	<path class="st0" d="M100,95c12.62,0,24.49-4.92,33.41-13.84c8.93-8.93,13.84-20.79,13.84-33.41c0-12.62-4.92-24.49-13.84-33.42
		C115-4.1,85.01-4.11,66.58,14.32c-18.43,18.43-18.43,48.41,0,66.83C75.51,90.08,87.38,95,100,95z M78.76,26.49
		c5.86-5.86,13.55-8.79,21.24-8.79c7.7,0,15.39,2.93,21.24,8.79c5.67,5.67,8.8,13.22,8.8,21.24c0,8.02-3.12,15.57-8.8,21.24
		s-13.22,8.8-21.24,8.8c-8.03,0-15.57-3.12-21.24-8.8C67.04,57.27,67.04,38.21,78.76,26.49z"/>
</g>
</svg>
