<?xml version="1.0" encoding="utf-8"?>
<!-- Generator: Adobe Illustrator 27.1.0, SVG Export Plug-In . SVG Version: 6.00 Build 0)  -->
<svg version="1.1" id="Layer_1" xmlns="http://www.w3.org/2000/svg" xmlns:xlink="http://www.w3.org/1999/xlink" x="0px" y="0px"
	 viewBox="0 0 200 200" style="enable-background:new 0 0 200 200;" xml:space="preserve">
<style type="text/css">
	.st0{fill:#E10600;}
</style>
<g>
	<path class="st0" d="M100,195.33l-3.63-2.39C55.96,166.25,6.82,119.26,1.34,74.7C-1.01,55.57,4.6,38.46,18.03,23.83
		C46.76-7.49,81.9,5.88,100,19.72c18.11-13.84,53.24-27.22,81.98,4.11c13.42,14.63,19.04,31.75,16.68,50.88
		c-5.48,44.56-54.62,91.54-95.03,118.23L100,195.33z M58.78,17.89c-9.98,0-20.85,3.72-31.05,14.84
		C16.88,44.55,12.52,57.76,14.41,73.1c4.48,36.43,45.61,79.13,85.59,106.42c39.98-27.29,81.11-69.98,85.59-106.42
		c1.88-15.34-2.47-28.54-13.32-40.37l0,0c-30.22-32.94-66.33-0.96-67.85,0.42l-4.44,4.01l-4.43-4.02
		C94.56,32.24,78.37,17.89,58.78,17.89z"/>
</g>
</svg>
