<svg width="31" height="24" viewBox="0 0 31 24" fill="none" xmlns="http://www.w3.org/2000/svg">
<path d="M16.5334 20.1998C16.8534 20.6595 17.2503 20.7286 17.6763 20.7274C20.8428 20.7184 24.0094 20.7233 27.176 20.7219C27.8069 20.7217 28.0448 20.2951 27.8133 19.4712C26.9815 16.511 26.2502 13.4977 25.5298 10.4774C25.337 9.669 24.9038 9.75426 24.4618 9.95282" stroke="#E10600" stroke-width="0.7" stroke-linecap="round" stroke-linejoin="round"/>
<path d="M6.78573 9.93865C6.22026 9.68517 5.86682 9.77573 5.6155 10.7645C4.86212 13.7286 4.0054 16.6366 3.19938 19.5726C2.96871 20.4128 3.13233 20.7217 3.77074 20.7219C6.95323 20.7233 10.1357 20.7184 13.3182 20.7274C13.7463 20.7286 14.1452 20.6594 14.4668 20.1991" stroke="#E10600" stroke-width="0.7" stroke-linecap="round" stroke-linejoin="round"/>
<path d="M26.8668 18.995C25.8742 19.2822 24.8839 18.9701 23.9047 18.7954C21.7714 18.4147 19.6587 18.3451 17.5775 19.4963C17.2219 19.6931 17.3479 19.4679 17 19.5" stroke="#E10600" stroke-width="0.7" stroke-linecap="round" stroke-linejoin="round"/>
<path d="M14.4666 19.6211C13.7389 19.7258 13.052 19.2843 12.3526 18.9971C10.3493 18.1745 8.33431 18.6954 6.32579 18.8642C5.59568 18.9256 4.87017 19.2268 4.1333 19.0721" stroke="#E10600" stroke-width="0.7" stroke-linecap="round" stroke-linejoin="round"/>
<path d="M24.5 17C24.3061 14.5138 23.5401 12.5875 23.0836 10.2313C22.8764 9.16178 22.7117 8.06638 22.3566 7.06356C22.2586 6.78659 22.2585 6.5431 21.9981 6.54592C20.5903 6.56117 19.1975 6.60302 17.8227 7.25432C16.9757 7.6556 16.378 8.52256 15.7138 9.28868C15.4429 9.60121 15.5065 10.098 15.5064 10.5427C15.5054 13.9377 15.5059 17.3327 15.5059 20.7277" stroke="#E10600" stroke-width="0.7" stroke-linecap="round" stroke-linejoin="round"/>
<path d="M15 9.68557C14.0302 7.72522 12.5859 7.46135 11.1041 7.30834C10.431 7.23883 9.75973 7.12448 9.08895 7.01307C8.75125 6.95698 8.54578 7.06829 8.40725 7.60444C7.62115 10.6468 6.80384 13.6717 6.00396 16.7065C5.98424 16.7813 6.04344 16.9012 6.06583 17" stroke="#E10600" stroke-width="0.7" stroke-linecap="round" stroke-linejoin="round"/>
<path d="M24.5 17C23.7096 17.129 23.2674 16.5701 22.4955 16.4367C20.7982 16.1435 19.286 16.8603 17.8046 18.0058C17.3936 18.3236 17.2348 18.9587 16.9806 19.4557C16.12 21.1379 15.1346 21.169 14.3125 19.4389C13.1906 17.0777 11.5455 16.5736 9.83533 16.3863C8.62351 16.2535 7.44451 16.7211 6.27005 17.139C6.24537 17.1478 6.22326 17.1743 6.19995 17.1926C6.21161 17.2109 6.22326 17.2292 6.23491 17.2474" stroke="#E10600" stroke-width="0.7" stroke-linecap="round" stroke-linejoin="round"/>
<path d="M8 9.01761C7.30029 8.91091 6.83906 9.28086 6.59381 10.352C6.02619 12.8313 5.06449 15.117 4.33453 17.5154C4.18757 17.9982 3.98044 18.4604 4.00149 19" stroke="#E10600" stroke-width="0.7" stroke-linecap="round" stroke-linejoin="round"/>
<path d="M22.7334 8.7329C23.4325 8.67154 24.0897 9.1393 24.2447 10.0315C24.6642 12.4464 25.6432 14.6316 26.4067 16.9064C26.5855 17.439 26.5902 18.0404 26.8667 18.5457" stroke="#E10600" stroke-width="0.7" stroke-linecap="round" stroke-linejoin="round"/>
</svg>
