<?xml version="1.0" encoding="utf-8"?>
<!-- Generator: Adobe Illustrator 27.1.0, SVG Export Plug-In . SVG Version: 6.00 Build 0)  -->
<svg version="1.1" id="Layer_1" xmlns="http://www.w3.org/2000/svg" xmlns:xlink="http://www.w3.org/1999/xlink" x="0px" y="0px"
	 viewBox="0 0 200 200" style="enable-background:new 0 0 200 200;" xml:space="preserve">
<style type="text/css">
	.st0{fill:#E10600;}
</style>
<g id="iconos">
	<g>
		<path class="st0" d="M187.9,76.4H78.5c-6.4,0-11.6,5.2-11.6,11.6v24c0,6.4,5.2,11.6,11.6,11.6h109.3c6.4,0,11.6-5.2,11.6-11.6V88
			C199.5,81.6,194.3,76.4,187.9,76.4z M193.3,112c0,3-2.4,5.4-5.4,5.4H78.5c-3,0-5.4-2.4-5.4-5.4V88c0-3,2.4-5.4,5.4-5.4h109.3
			c3,0,5.4,2.4,5.4,5.4V112z"/>
		<path class="st0" d="M99.2,98.1h-4.3l3-3c0.7-0.7,0.7-1.9,0-2.6c-0.7-0.7-1.9-0.7-2.6,0l-3,3v-4.3c0-1-0.8-1.9-1.9-1.9
			s-1.9,0.8-1.9,1.9v4.3l-3-3c-0.7-0.7-1.9-0.7-2.6,0c-0.7,0.7-0.7,1.9,0,2.6l3,3h-4.3c-1,0-1.9,0.8-1.9,1.9c0,1,0.8,1.9,1.9,1.9
			h4.3l-3,3c-0.7,0.7-0.7,1.9,0,2.6c0.4,0.4,0.8,0.5,1.3,0.5c0.5,0,1-0.2,1.3-0.5l3-3v4.3c0,1,0.8,1.9,1.9,1.9s1.9-0.8,1.9-1.9v-4.3
			l3,3c0.4,0.4,0.8,0.5,1.3,0.5c0.5,0,1-0.2,1.3-0.5c0.7-0.7,0.7-1.9,0-2.6l-3-3h4.3c1,0,1.9-0.8,1.9-1.9
			C101.1,99,100.2,98.1,99.2,98.1z"/>
		<path class="st0" d="M127.7,98.1h-4.3l3-3c0.7-0.7,0.7-1.9,0-2.6c-0.7-0.7-1.9-0.7-2.6,0l-3,3v-4.3c0-1-0.8-1.9-1.9-1.9
			s-1.9,0.8-1.9,1.9v4.3l-3-3c-0.7-0.7-1.9-0.7-2.6,0c-0.7,0.7-0.7,1.9,0,2.6l3,3h-4.3c-1,0-1.9,0.8-1.9,1.9s0.8,1.9,1.9,1.9h4.3
			l-3,3c-0.7,0.7-0.7,1.9,0,2.6c0.4,0.4,0.8,0.5,1.3,0.5c0.5,0,1-0.2,1.3-0.5l3-3v4.3c0,1,0.8,1.9,1.9,1.9s1.9-0.8,1.9-1.9v-4.3l3,3
			c0.4,0.4,0.8,0.5,1.3,0.5c0.5,0,1-0.2,1.3-0.5c0.7-0.7,0.7-1.9,0-2.6l-3-3h4.3c1,0,1.9-0.8,1.9-1.9
			C129.6,99,128.8,98.1,127.7,98.1z"/>
		<path class="st0" d="M156.2,98.1H152l3-3c0.7-0.7,0.7-1.9,0-2.6c-0.7-0.7-1.9-0.7-2.6,0l-3,3v-4.3c0-1-0.8-1.9-1.9-1.9
			s-1.9,0.8-1.9,1.9v4.3l-3-3c-0.7-0.7-1.9-0.7-2.6,0c-0.7,0.7-0.7,1.9,0,2.6l3,3h-4.3c-1,0-1.9,0.8-1.9,1.9s0.8,1.9,1.9,1.9h4.3
			l-3,3c-0.7,0.7-0.7,1.9,0,2.6c0.4,0.4,0.8,0.5,1.3,0.5c0.5,0,1-0.2,1.3-0.5l3-3v4.3c0,1,0.8,1.9,1.9,1.9s1.9-0.8,1.9-1.9v-4.3l3,3
			c0.4,0.4,0.8,0.5,1.3,0.5c0.5,0,1-0.2,1.3-0.5c0.7-0.7,0.7-1.9,0-2.6l-3-3h4.3c1,0,1.9-0.8,1.9-1.9
			C158.1,99,157.3,98.1,156.2,98.1z"/>
		<path class="st0" d="M184.8,98.1h-4.3l3-3c0.7-0.7,0.7-1.9,0-2.6c-0.7-0.7-1.9-0.7-2.6,0l-3,3v-4.3c0-1-0.8-1.9-1.9-1.9
			s-1.9,0.8-1.9,1.9v4.3l-3-3c-0.7-0.7-1.9-0.7-2.6,0c-0.7,0.7-0.7,1.9,0,2.6l3,3h-4.3c-1,0-1.9,0.8-1.9,1.9s0.8,1.9,1.9,1.9h4.3
			l-3,3c-0.7,0.7-0.7,1.9,0,2.6c0.4,0.4,0.8,0.5,1.3,0.5c0.5,0,1-0.2,1.3-0.5l3-3v4.3c0,1,0.8,1.9,1.9,1.9s1.9-0.8,1.9-1.9v-4.3l3,3
			c0.4,0.4,0.8,0.5,1.3,0.5c0.5,0,1-0.2,1.3-0.5c0.7-0.7,0.7-1.9,0-2.6l-3-3h4.3c1,0,1.9-0.8,1.9-1.9
			C186.6,99,185.8,98.1,184.8,98.1z"/>
		<path class="st0" d="M43.4,78.7h-7.7c-4.2,0-7.6,3.5-7.6,7.9v5.9c-3.2,0.6-5.5,3.4-5.5,6.8v14.4c0,3.8,3.1,6.9,6.9,6.9h20.2
			c3.8,0,6.9-3.1,6.9-6.9V99.2c0-3.3-2.4-6.1-5.5-6.8v-5.9C51.1,82.3,47.7,78.7,43.4,78.7z M35.8,83.7h7.7c1.5,0,2.6,1.3,2.6,2.9
			v5.7h-13v-5.7C33.1,85,34.3,83.7,35.8,83.7z M51.6,113.7c0,1.1-0.9,1.9-1.9,1.9H29.5c-1.1,0-1.9-0.9-1.9-1.9V99.2
			c0-1.1,0.9-1.9,1.9-1.9h20.2c1.1,0,1.9,0.9,1.9,1.9C51.6,99.2,51.6,113.7,51.6,113.7z"/>
		<path class="st0" d="M66.7,127c-6.8,6.2-15.5,9.6-24.7,9.6c-20.2,0-36.5-16.4-36.5-36.5S21.9,63.4,42,63.4
			c9.2,0,17.9,3.4,24.7,9.6c1,0.9,2.6,0.9,3.5-0.2c0.9-1,0.9-2.6-0.2-3.5c-7.7-7-17.6-10.9-28-10.9C19.1,58.5,0.5,77.1,0.5,100
			s18.6,41.5,41.5,41.5c10.4,0,20.4-3.9,28-10.9c1-0.9,1.1-2.5,0.2-3.5C69.3,126.1,67.7,126,66.7,127z"/>
	</g>
</g>
</svg>
