<svg width="94" height="94" viewBox="0 0 94 94" fill="none" xmlns="http://www.w3.org/2000/svg">
<path fill-rule="evenodd" clip-rule="evenodd" d="M25.2529 82.2713C23.1236 84.8104 19.3392 85.1427 16.8001 83.0135C8.03103 75.66 2.24625 65.3596 0.530939 54.0447C-1.18438 42.7297 1.28762 31.1777 7.48322 21.5555C13.6788 11.9334 23.1723 4.90245 34.1828 1.78153C45.1932 -1.33939 56.9641 -0.335802 67.2873 4.60405C77.6105 9.5439 85.7766 18.0806 90.2539 28.6126C94.7311 39.1447 95.2117 50.9485 91.6056 61.8098C87.9996 72.671 80.5545 81.8434 70.6671 87.6062C67.8042 89.2749 64.1307 88.3067 62.462 85.4438C60.7934 82.5809 61.7615 78.9073 64.6245 77.2387C71.9874 72.9472 77.5316 66.1167 80.217 58.0286C82.9023 49.9404 82.5444 41.1503 79.2103 33.3073C75.8762 25.4643 69.795 19.1072 62.1075 15.4286C54.4201 11.75 45.6545 11.0026 37.4552 13.3267C29.256 15.6508 22.1864 20.8866 17.5726 28.052C12.9589 35.2174 11.118 43.82 12.3954 52.246C13.6727 60.6721 17.9806 68.3425 24.5107 73.8185C27.0498 75.9478 27.3821 79.7322 25.2529 82.2713Z" fill="#F9CDCC"/>
<path fill-rule="evenodd" clip-rule="evenodd" d="M41 6C41 2.68629 43.6862 0 47 0C58.4442 0 69.4952 4.17556 78.08 11.7434C86.6648 19.3112 92.1934 29.7513 93.6288 41.1051C95.0641 52.459 92.3076 63.9465 85.8763 73.4127C79.4449 82.8788 69.7807 89.6732 58.6965 92.5213C47.6123 95.3693 35.8698 94.0753 25.6718 88.882C15.4738 83.6887 7.52091 74.953 3.30516 64.3136C-0.910607 53.6741 -1.09961 41.862 2.77362 31.0932C3.89512 27.975 7.33204 26.3564 10.4502 27.4779C13.5684 28.5994 15.187 32.0363 14.0655 35.1545C11.1811 43.1738 11.3219 51.9701 14.4613 59.8931C17.6007 67.8161 23.523 74.3214 31.1173 78.1887C38.7116 82.0561 47.456 83.0197 55.7102 80.8988C63.9643 78.7779 71.1611 73.7183 75.9504 66.669C80.7397 59.6197 82.7924 51.0652 81.7235 42.6102C80.6546 34.1552 76.5376 26.3807 70.1447 20.7451C63.7517 15.1095 55.5222 12 47 12C43.6862 12 41 9.31371 41 6Z" fill="#E10600"/>
</svg>
